<svg id="Layer_1" data-name="Layer 1" xmlns="http://www.w3.org/2000/svg" xmlns:xlink="http://www.w3.org/1999/xlink"
     viewBox="0 0 1068 1068">
    <defs>
        <style>
            .laptop-cls-1{fill:none;}.laptop-cls-2{opacity:0.25;}.laptop-cls-3{fill:#fff;}.laptop-cls-4{fill:#303030;}.laptop-cls-5{fill:#181818;}.laptop-cls-6{fill:#4d4d4d;}.laptop-cls-7{fill:#f88c51;}.laptop-cls-8{fill:#ffa653;}.laptop-cls-9{fill:#db7b47;}.laptop-cls-10{fill:#ff9b53;}.laptop-cls-11{opacity:0.05;}.laptop-cls-12{isolation:isolate;}.laptop-cls-13{clip-path:url(#clip-path);}.laptop-cls-14{opacity:0.7;}.laptop-cls-15{fill:#1c1c1c;}.laptop-cls-16{opacity:0.8;}
        </style>
        <clipPath id="clip-path">
            <polygon class="laptop-cls-1" points="35.53 823.93 153.99 721.4 968.45 721.4 849.99 823.93 35.53 823.93"/>
        </clipPath>
    </defs>
    <g class="laptop-cls-2">
        <rect class="laptop-cls-3" x="321.04" y="270.85" width="9.89" height="9.89" rx="4.95"/>
    </g>
    <rect class="laptop-cls-4" x="156.57" y="243.08" width="840.03" height="459.39"/>
    <path class="laptop-cls-5"
          d="M981.6,258.08V687.47h-810V258.08h810m18-30h-846a12,12,0,0,0-12,12V705.46a12,12,0,0,0,12,12h846a12,12,0,0,0,12-12V240.08a12,12,0,0,0-12-12Z"/>
    <rect class="laptop-cls-6" x="213.4" y="350.97" width="243.61" height="243.61" rx="8.95"/>
    <path class="laptop-cls-7"
          d="M393.25,433.72a75.06,75.06,0,0,1-4.79-14.27c-5.37-1.52-10.66-3.12-15.82-4.83l-8.32,11.05c2.69.88,5.39,1.71,8.07,2.5,5.43,17,16.61,32.27,31.84,44.6-15.23,12.28-26.41,27.58-31.84,44.6-2.73.79-5.43,1.62-8.07,2.5l8.32,11c5.16-1.71,10.45-3.31,15.82-4.83a75.06,75.06,0,0,1,4.79-14.27c6.83-15.21,18.74-28.62,34.14-39.05C412,462.4,400.08,448.93,393.25,433.72Z"/>
    <path class="laptop-cls-8"
          d="M266.13,472.77c15.23-12.28,26.44-27.58,31.84-44.6,2.73-.79,5.45-1.62,8.12-2.5l-8.33-11.05c-5.19,1.68-10.44,3.31-15.81,4.83a75.06,75.06,0,0,1-4.79,14.27c-6.84,15.21-18.74,28.68-34.15,39,15.41,10.37,27.31,23.84,34.15,39.05A75.06,75.06,0,0,1,282,526.09c5.37,1.52,10.66,3.12,15.81,4.83l8.33-11c-2.67-.88-5.39-1.71-8.12-2.5C292.57,500.35,281.36,485.05,266.13,472.77Z"/>
    <path class="laptop-cls-9"
          d="M359.47,503.88a46.36,46.36,0,0,1,8.88-3c.94-3.34,1.94-6.63,3-9.83l-6.91-5.16c-.54,1.66-1.05,3.34-1.56,5-10.56,3.38-20.07,10.38-27.65,19.79-7.65-9.46-17.15-16.41-27.66-19.79-.51-1.69-1-3.37-1.56-5l-6.91,5.16c1.05,3.2,2.05,6.49,3,9.83a46.13,46.13,0,0,1,8.88,3c9.45,4.25,17.78,11.64,24.27,21.22C341.69,515.51,350,508.11,359.47,503.88Z"/>
    <path class="laptop-cls-10"
          d="M335.2,434.82c7.64,9.46,17.15,16.41,27.66,19.79.51,1.69,1,3.39,1.56,5.05l6.91-5.18c-1.05-3.2-2.05-6.49-3-9.83a46.27,46.27,0,0,1-8.87-3C350,437.43,341.69,430,335.2,420.45c-6.48,9.58-14.82,17-24.27,21.21a46,46,0,0,1-8.87,3c-.94,3.34-1.95,6.63-3,9.83l6.92,5.17c.54-1.65,1-3.35,1.55-5C318.06,451.23,327.56,444.28,335.2,434.82Z"/>
    <rect class="laptop-cls-10" x="502.4" y="395.84" width="246.09" height="17.4" rx="5"/>
    <rect class="laptop-cls-10" x="502.4" y="448.59" width="454.07" height="6.96" rx="2"/>
    <rect class="laptop-cls-10" x="502.4" y="480.67" width="454.07" height="6.96" rx="2"/>
    <rect class="laptop-cls-10" x="502.4" y="512.75" width="454.07" height="6.96" rx="2"/>
    <rect class="laptop-cls-10" x="502.4" y="544.82" width="454.07" height="6.96" rx="2"/>
    <path class="laptop-cls-5"
          d="M859.41,839.92H13.61a8,8,0,0,1-5.25-14l133.21-116.5h870L864.66,838A8,8,0,0,1,859.41,839.92Z"/>
    <g class="laptop-cls-11">
        <g class="laptop-cls-12">
            <g class="laptop-cls-13">
                <path class="laptop-cls-3"
                      d="M888.81,790.33h-1.17l-18.42,15.94h1.18l18.41-15.94m19.74-17.09h-1.17L889,789.18h1.17l18.41-15.94m19.74-17.08h-1.17l-18.41,15.93h1.17l18.41-15.93M948,739.07h-1.18L928.45,755h1.17L948,739.07M204.3,721.4H154L35.53,823.93H850l19.08-16.51h-1.18l-17.75,15.36H801l-1.33,1.15H798.5l1.33-1.15H750.1l-1.33,1.15h-1.18l1.33-1.15H699.2l-1.33,1.15h-1.18l1.33-1.15H648.29L647,823.93h-1.17l1.33-1.15H597.39l-1.33,1.15h-1.18l1.33-1.15H546.48l-1.33,1.15H544l1.33-1.15H495.58l-1.33,1.15h-1.18l1.33-1.15H444.68l-1.33,1.15h-1.18l1.33-1.15H393.78l-1.33,1.15h-1.18l1.33-1.15H342.87l-1.33,1.15h-1.18l1.33-1.15H292l-1.33,1.15h-1.18l1.33-1.15H241.06l-1.33,1.15h-1.17l1.33-1.15H190.16l-1.33,1.15h-1.18l1.33-1.15H139.25l-1.33,1.15h-1.17l1.33-1.15H88.35L87,823.93H85.84l1.33-1.15H38l17.75-15.36H54.61l1.33-1.16h1.17l18.42-15.93H74.35l1.33-1.15h1.18l18.41-15.94H94.09l1.33-1.15H96.6L115,756.16h-1.17l1.33-1.16h1.17l18.41-15.93h-1.17l1.33-1.15h1.17l17.75-15.37H203l1.33-1.15m50.91,0H205.48l-1.33,1.15h49.73l1.33-1.15m50.9,0H256.38l-1.33,1.15h49.73l1.33-1.15m50.91,0H307.29L306,722.55h49.73L357,721.4m50.9,0H358.19l-1.33,1.15h49.73l1.33-1.15m50.9,0H409.1l-1.33,1.15h49.72l1.33-1.15m50.9,0H460l-1.33,1.15h49.72l1.33-1.15m50.91,0H510.9l-1.33,1.15H559.3l1.33-1.15m50.9,0H561.8l-1.33,1.15H610.2l1.33-1.15m50.91,0H612.71l-1.33,1.15h49.73l1.33-1.15m50.9,0H663.61l-1.33,1.15H712l1.33-1.15m50.91,0H714.52l-1.33,1.15h49.73l1.33-1.15m50.9,0H765.42l-1.33,1.15h49.73l1.33-1.15m50.9,0H816.33L815,722.55h49.72l1.33-1.15m50.9,0H867.23l-1.33,1.15h49.72L917,721.4m51.5,0H918.13l-1.33,1.15h49.14l-17.75,15.37h1.18l19.08-16.52"/>
                <path class="laptop-cls-3"
                      d="M106.25,806.26H55.94l-1.33,1.16h50.31l1.33-1.16m50.91,0H107.43l-1.33,1.16h49.73l1.33-1.16m50.9,0H158.33L157,807.42h49.73l1.33-1.15m50.91,0H209.24l-1.33,1.15h49.73l1.33-1.15m50.9,0H260.14l-1.33,1.15h49.73l1.33-1.15m50.9,0H311.05l-1.33,1.15h49.72l1.33-1.15m50.91,0H362l-1.33,1.15h49.73l1.33-1.15m50.9,0H412.86l-1.33,1.15h49.72l1.33-1.15m50.9,0H463.76l-1.33,1.15h49.72l1.33-1.15m50.91,0H514.66l-1.33,1.15h49.73l1.33-1.15m50.9,0H565.56l-1.33,1.15H614l1.33-1.15m50.91,0H616.47l-1.33,1.15h49.73l1.33-1.15m50.9,0H667.37L666,807.42h49.73l1.33-1.15m50.9,0H718.28L717,807.42h49.72l1.33-1.15m50.91,0H769.18l-1.33,1.15h49.73l1.33-1.15m51.49,0H820.08l-1.33,1.15h50.32l1.33-1.15"/>
                <path class="laptop-cls-3"
                      d="M126,789.18H75.68l-1.33,1.15h50.32l1.33-1.15m50.9,0H127.18l-1.33,1.15h49.72l1.33-1.15m50.9,0H178.08l-1.33,1.15h49.72l1.33-1.15m50.91,0H229l-1.33,1.15h49.73l1.33-1.15m50.9,0H279.88l-1.33,1.15h49.73l1.33-1.15m50.91,0H330.79l-1.33,1.15h49.73l1.33-1.15m50.9,0H381.69l-1.33,1.15h49.73l1.33-1.15m50.9,0H432.6l-1.33,1.15H481l1.33-1.15m50.91,0H483.5l-1.33,1.15H531.9l1.33-1.15m50.9,0H534.41l-1.34,1.15H582.8l1.33-1.15m50.9,0H585.31L584,790.33H633.7l1.33-1.15m50.91,0H636.21l-1.33,1.15h49.73l1.33-1.15m50.9,0H687.11l-1.33,1.15h49.73l1.33-1.15m50.91,0H738l-1.33,1.15h49.73l1.33-1.15m50.9,0H788.92l-1.33,1.15h49.73l1.33-1.15m51.49,0H839.83l-1.33,1.15h50.31l1.33-1.15"/>
                <path class="laptop-cls-3"
                      d="M145.74,772.09H95.42l-1.33,1.15h50.32l1.33-1.15m50.9,0H146.92l-1.33,1.15h49.72l1.33-1.15m50.91,0H197.82l-1.33,1.15h49.73l1.33-1.15m50.9,0H248.72l-1.33,1.15h49.73l1.33-1.15m50.9,0H299.63l-1.33,1.15H348l1.33-1.15m50.91,0H350.53l-1.33,1.15h49.73l1.33-1.15m50.9,0H401.43l-1.33,1.15h49.73l1.33-1.15m50.91,0H452.34L451,773.24h49.73l1.33-1.15m50.9,0H503.24l-1.33,1.15h49.73l1.33-1.15m50.9,0H554.15l-1.33,1.15h49.72l1.33-1.15m50.9,0H605.05l-1.33,1.15h49.72l1.33-1.15m50.91,0H656l-1.33,1.15h49.73l1.33-1.15m50.9,0H706.86l-1.33,1.15h49.72l1.33-1.15m50.91,0H757.76l-1.33,1.15h49.73l1.33-1.15m50.9,0H808.66l-1.33,1.15h49.73l1.33-1.15m51.49,0H859.57l-1.33,1.15h50.31l1.33-1.15"/>
                <path class="laptop-cls-3"
                      d="M165.48,755H115.17l-1.33,1.16h50.31l1.33-1.16m50.91,0H166.66l-1.33,1.16h49.73l1.33-1.16m50.9,0H217.56l-1.33,1.16H266l1.33-1.16m50.9,0H268.47l-1.33,1.16h49.72l1.33-1.16m50.9,0H319.37L318,756.16h49.72l1.33-1.16M420,755H370.27l-1.33,1.16h49.73L420,755m50.9,0H421.18l-1.33,1.16h49.72L470.9,755m50.91,0H472.08l-1.33,1.16h49.73l1.33-1.16m50.9,0H523l-1.33,1.16h49.73l1.33-1.16m50.91,0H573.89l-1.33,1.16h49.73l1.33-1.16m50.9,0H624.79l-1.33,1.16h49.73l1.33-1.16m50.9,0H675.7l-1.33,1.16h49.72l1.33-1.16m50.9,0H726.6l-1.33,1.16H775l1.33-1.16m50.91,0H777.5l-1.33,1.16H825.9l1.33-1.16m50.9,0H828.4l-1.33,1.16H876.8l1.33-1.16m51.49,0H879.31L878,756.16h50.31l1.33-1.16"/>
                <path class="laptop-cls-3"
                      d="M185.22,737.92H134.91l-1.33,1.15h50.31l1.33-1.15m50.91,0H186.4l-1.33,1.15H234.8l1.33-1.15m50.9,0H237.3L236,739.07H285.7l1.33-1.15m50.91,0H288.21l-1.33,1.15h49.73l1.33-1.15m50.9,0H339.11l-1.33,1.15h49.73l1.33-1.15m50.9,0H390l-1.33,1.15h49.72l1.33-1.15m50.9,0H440.92l-1.33,1.15h49.72l1.33-1.15m50.91,0H491.82l-1.33,1.15h49.73l1.33-1.15m50.9,0H542.72l-1.33,1.15h49.73l1.33-1.15m50.91,0H593.63l-1.33,1.15H642l1.33-1.15m50.9,0H644.53l-1.33,1.15h49.73l1.33-1.15m50.91,0H695.44l-1.33,1.15h49.73l1.33-1.15m50.9,0H746.34L745,739.07h49.73l1.33-1.15m50.9,0H797.25l-1.33,1.15h49.72l1.33-1.15m50.9,0H848.15l-1.33,1.15h49.72l1.33-1.15m51.5,0H899.05l-1.33,1.15H948l1.33-1.15"/>
                <polyline class="laptop-cls-3"
                          points="918.13 721.4 916.95 721.4 915.62 722.55 897.87 737.92 896.54 739.07 878.13 755 876.8 756.16 858.39 772.09 857.06 773.24 838.65 789.18 837.32 790.33 818.9 806.26 817.58 807.42 799.83 822.78 798.5 823.93 799.67 823.93 801 822.78 818.75 807.42 820.09 806.26 838.5 790.33 839.83 789.18 858.24 773.24 859.57 772.09 877.98 756.16 879.31 755 897.72 739.07 899.05 737.92 916.8 722.55 918.13 721.4"/>
                <polyline class="laptop-cls-3"
                          points="867.23 721.4 866.05 721.4 864.72 722.55 846.97 737.92 845.64 739.07 827.23 755 825.9 756.16 807.49 772.09 806.16 773.24 787.75 789.18 786.42 790.33 768 806.26 766.67 807.42 748.92 822.78 747.59 823.93 748.77 823.93 750.1 822.78 767.85 807.42 769.18 806.26 787.59 790.33 788.92 789.18 807.33 773.24 808.66 772.09 827.08 756.16 828.4 755 846.82 739.07 848.15 737.92 865.9 722.55 867.23 721.4"/>
                <polyline class="laptop-cls-3"
                          points="816.33 721.4 815.15 721.4 813.82 722.55 796.07 737.92 794.74 739.07 776.32 755 774.99 756.16 756.58 772.09 755.25 773.24 736.84 789.18 735.51 790.33 717.1 806.26 715.77 807.42 698.02 822.78 696.69 823.93 697.87 823.93 699.2 822.78 716.95 807.42 718.28 806.26 736.69 790.33 738.02 789.18 756.43 773.24 757.76 772.09 776.17 756.16 777.5 755 795.92 739.07 797.25 737.92 815 722.55 816.33 721.4"/>
                <polyline class="laptop-cls-3"
                          points="765.42 721.4 764.25 721.4 762.91 722.55 745.16 737.92 743.84 739.07 725.42 755 724.09 756.16 705.68 772.09 704.35 773.24 685.94 789.18 684.61 790.33 666.2 806.26 664.87 807.42 647.12 822.78 645.79 823.93 646.96 823.93 648.29 822.78 666.04 807.42 667.37 806.26 685.78 790.33 687.11 789.18 705.52 773.24 706.86 772.09 725.27 756.16 726.6 755 745.01 739.07 746.34 737.92 764.09 722.55 765.42 721.4"/>
                <polyline class="laptop-cls-3"
                          points="714.52 721.4 713.34 721.4 712.01 722.55 694.26 737.92 692.93 739.07 674.52 755 673.19 756.16 654.77 772.09 653.45 773.24 635.03 789.18 633.7 790.33 615.29 806.26 613.96 807.42 596.21 822.78 594.88 823.93 596.06 823.93 597.39 822.78 615.14 807.42 616.47 806.26 634.88 790.33 636.21 789.18 654.62 773.24 655.95 772.09 674.37 756.16 675.7 755 694.11 739.07 695.44 737.92 713.19 722.55 714.52 721.4"/>
                <polyline class="laptop-cls-3"
                          points="663.61 721.4 662.44 721.4 661.11 722.55 643.36 737.92 642.03 739.07 623.62 755 622.29 756.16 603.87 772.09 602.54 773.24 584.13 789.18 582.8 790.33 564.39 806.26 563.06 807.42 545.31 822.78 543.98 823.93 545.15 823.93 546.48 822.78 564.23 807.42 565.56 806.26 583.98 790.33 585.31 789.18 603.72 773.24 605.05 772.09 623.46 756.16 624.79 755 643.2 739.07 644.53 737.92 662.28 722.55 663.61 721.4"/>
                <polyline class="laptop-cls-3"
                          points="612.71 721.4 611.53 721.4 610.2 722.55 592.45 737.92 591.12 739.07 572.71 755 571.38 756.16 552.97 772.09 551.64 773.24 533.23 789.18 531.89 790.33 513.48 806.26 512.15 807.42 494.4 822.78 493.07 823.93 494.25 823.93 495.58 822.78 513.33 807.42 514.66 806.26 533.08 790.33 534.4 789.18 552.82 773.24 554.15 772.09 572.56 756.16 573.89 755 592.3 739.07 593.63 737.92 611.38 722.55 612.71 721.4"/>
                <polyline class="laptop-cls-3"
                          points="561.8 721.4 560.63 721.4 559.3 722.55 541.55 737.92 540.22 739.07 521.81 755 520.48 756.16 502.07 772.09 500.74 773.24 482.32 789.18 480.99 790.33 462.58 806.26 461.25 807.42 443.5 822.78 442.17 823.93 443.35 823.93 444.68 822.78 462.43 807.42 463.76 806.26 482.17 790.33 483.5 789.18 501.91 773.24 503.24 772.09 521.65 756.16 522.98 755 541.39 739.07 542.73 737.92 560.48 722.55 561.8 721.4"/>
                <polyline class="laptop-cls-3"
                          points="510.9 721.4 509.72 721.4 508.39 722.55 490.64 737.92 489.31 739.07 470.9 755 469.57 756.16 451.16 772.09 449.83 773.24 431.42 789.18 430.09 790.33 411.68 806.26 410.35 807.42 392.6 822.78 391.27 823.93 392.44 823.93 393.78 822.78 411.53 807.42 412.86 806.26 431.27 790.33 432.6 789.18 451.01 773.24 452.34 772.09 470.75 756.16 472.08 755 490.49 739.07 491.82 737.92 509.57 722.55 510.9 721.4"/>
                <polyline class="laptop-cls-3"
                          points="460 721.4 458.82 721.4 457.49 722.55 439.74 737.92 438.41 739.07 420 755 418.67 756.16 400.26 772.09 398.93 773.24 380.52 789.18 379.19 790.33 360.77 806.26 359.44 807.42 341.69 822.78 340.37 823.93 341.54 823.93 342.87 822.78 360.62 807.42 361.95 806.26 380.36 790.33 381.69 789.18 400.1 773.24 401.43 772.09 419.85 756.16 421.18 755 439.59 739.07 440.92 737.92 458.67 722.55 460 721.4"/>
                <polyline class="laptop-cls-3"
                          points="409.1 721.4 407.92 721.4 406.59 722.55 388.84 737.92 387.51 739.07 369.1 755 367.76 756.16 349.35 772.09 348.02 773.24 329.61 789.18 328.28 790.33 309.87 806.26 308.54 807.42 290.79 822.78 289.46 823.93 290.64 823.93 291.97 822.78 309.72 807.42 311.05 806.26 329.46 790.33 330.79 789.18 349.2 773.24 350.53 772.09 368.94 756.16 370.27 755 388.69 739.07 390.02 737.92 407.77 722.55 409.1 721.4"/>
                <polyline class="laptop-cls-3"
                          points="358.19 721.4 357.02 721.4 355.69 722.55 337.94 737.92 336.61 739.07 318.19 755 316.86 756.16 298.45 772.09 297.12 773.24 278.71 789.18 277.38 790.33 258.97 806.26 257.64 807.42 239.89 822.78 238.56 823.93 239.73 823.93 241.06 822.78 258.81 807.42 260.14 806.26 278.55 790.33 279.88 789.18 298.3 773.24 299.63 772.09 318.04 756.16 319.37 755 337.78 739.07 339.11 737.92 356.86 722.55 358.19 721.4"/>
                <polyline class="laptop-cls-3"
                          points="307.29 721.4 306.11 721.4 304.78 722.55 287.03 737.92 285.7 739.07 267.29 755 265.96 756.16 247.54 772.09 246.22 773.24 227.8 789.18 226.47 790.33 208.06 806.26 206.73 807.42 188.98 822.78 187.65 823.93 188.83 823.93 190.16 822.78 207.91 807.42 209.24 806.26 227.65 790.33 228.98 789.18 247.4 773.24 248.72 772.09 267.14 756.16 268.47 755 286.88 739.07 288.21 737.92 305.96 722.55 307.29 721.4"/>
                <polyline class="laptop-cls-3"
                          points="256.38 721.4 255.21 721.4 253.88 722.55 236.13 737.92 234.8 739.07 216.39 755 215.06 756.16 196.64 772.09 195.31 773.24 176.9 789.18 175.57 790.33 157.16 806.26 155.83 807.42 138.08 822.78 136.75 823.93 137.92 823.93 139.25 822.78 157 807.42 158.34 806.26 176.75 790.33 178.08 789.18 196.49 773.24 197.82 772.09 216.23 756.16 217.56 755 235.97 739.07 237.3 737.92 255.05 722.55 256.38 721.4"/>
                <polyline class="laptop-cls-3"
                          points="205.48 721.4 204.3 721.4 202.97 722.55 185.22 737.92 183.89 739.07 165.48 755 164.15 756.16 145.74 772.09 144.41 773.24 126 789.18 124.67 790.33 106.25 806.26 104.92 807.42 87.17 822.78 85.84 823.93 87.02 823.93 88.35 822.78 106.1 807.42 107.43 806.26 125.85 790.33 127.18 789.18 145.59 773.24 146.92 772.09 165.33 756.16 166.66 755 185.07 739.07 186.4 737.92 204.15 722.55 205.48 721.4"/>
            </g>
        </g>
    </g>
    <g class="laptop-cls-14">
        <rect class="laptop-cls-15" x="171.56" y="258.06" width="810.01" height="26.79"/>
    </g>
    <rect class="laptop-cls-4" x="209.48" y="270.45" width="121.14" height="8.41"/>
    <path class="laptop-cls-15"
          d="M331.9,264.45H208.19a4.71,4.71,0,0,0-4.71,4.72v15.69H336.62V269.17a4.72,4.72,0,0,0-4.72-4.72Z"/>
    <rect class="laptop-cls-4" x="858.56" y="343.75" width="195.82" height="449.54" rx="6.01"/>
    <path class="laptop-cls-5"
          d="M1048.38,349.75h0V787.29H864.56V349.75h183.81m0-12H864.57a12,12,0,0,0-12,12V787.28a12,12,0,0,0,12,12h183.81a12,12,0,0,0,12-12V349.76a12,12,0,0,0-12-12Z"/>
    <rect class="laptop-cls-6" x="898.79" y="388.59" width="115.36" height="115.36" rx="8.95"/>
    <path class="laptop-cls-7"
          d="M988.88,424.47a42.21,42.21,0,0,1-2.68-8c-3-.85-6-1.74-8.82-2.69L972.73,420c1.5.49,3,.95,4.51,1.39,3,9.51,9.27,18,17.77,24.9-8.5,6.86-14.74,15.4-17.77,24.9-1.53.45-3,.91-4.51,1.4l4.65,6.17c2.87-.95,5.83-1.85,8.82-2.69a42.21,42.21,0,0,1,2.68-8c3.82-8.49,10.46-16,19.07-21.81C999.34,440.48,992.7,433,988.88,424.47Z"/>
    <path class="laptop-cls-8"
          d="M917.91,446.27c8.5-6.85,14.76-15.39,17.77-24.9,1.53-.44,3.05-.9,4.54-1.39l-4.65-6.17c-2.9.94-5.83,1.84-8.83,2.69a41.51,41.51,0,0,1-2.68,8c-3.81,8.49-10.46,16-19.06,21.8,8.6,5.8,15.25,13.32,19.06,21.81a41.51,41.51,0,0,1,2.68,8c3,.84,6,1.74,8.83,2.69l4.65-6.17c-1.49-.49-3-.95-4.54-1.4C932.67,461.67,926.41,453.13,917.91,446.27Z"/>
    <path class="laptop-cls-9"
          d="M970,463.65a25.39,25.39,0,0,1,5-1.67q.78-2.81,1.67-5.49l-3.86-2.88c-.3.93-.59,1.87-.87,2.81a33,33,0,0,0-15.44,11.05A33.3,33.3,0,0,0,941,456.42c-.29-.94-.57-1.88-.87-2.81l-3.86,2.88q.87,2.68,1.67,5.49a25.85,25.85,0,0,1,5,1.67,33.07,33.07,0,0,1,13.55,11.84A32.77,32.77,0,0,1,970,463.65Z"/>
    <path class="laptop-cls-10"
          d="M956.47,425.09a33.21,33.21,0,0,0,15.44,11c.29.95.57,1.9.87,2.82l3.86-2.89q-.87-2.69-1.67-5.49a25.49,25.49,0,0,1-5-1.66,33,33,0,0,1-13.55-11.85,32.88,32.88,0,0,1-13.55,11.84,26.22,26.22,0,0,1-4.95,1.67c-.53,1.86-1.09,3.7-1.68,5.49l3.87,2.89c.3-.93.58-1.88.86-2.82A33.09,33.09,0,0,0,956.47,425.09Z"/>
    <rect class="laptop-cls-10" x="898.79" y="556.18" width="57.69" height="11.14" rx="5"/>
    <rect class="laptop-cls-10" x="898.79" y="534.06" width="115.36" height="11.14" rx="5"/>
    <rect class="laptop-cls-10" x="898.79" y="597.41" width="115.36" height="6.92" rx="2"/>
    <rect class="laptop-cls-10" x="898.79" y="625.26" width="115.36" height="6.92" rx="2"/>
    <rect class="laptop-cls-10" x="898.79" y="649.64" width="115.36" height="6.92" rx="2"/>
    <rect class="laptop-cls-10" x="898.79" y="676.22" width="115.36" height="6.92" rx="2"/>
    <rect class="laptop-cls-10" x="898.79" y="700.6" width="115.36" height="6.92" rx="2"/>
    <rect class="laptop-cls-4" x="864.46" y="349.49" width="184.19" height="9.4"/>
    <polygon class="laptop-cls-15"
             points="1048.65 349.49 864.46 349.49 864.46 358.89 1048.65 358.89 1048.65 349.49 1048.65 349.49"/>
    <g class="laptop-cls-14">
        <rect class="laptop-cls-15" x="864.46" y="358.89" width="184.19" height="9.4"/>
    </g>
    <g class="laptop-cls-16">
        <rect class="laptop-cls-3" x="1024.97" y="361.81" width="17.84" height="3.68" rx="1.84"/>
    </g>
    <g class="laptop-cls-16">
        <rect class="laptop-cls-3" x="1011.6" y="361.81" width="8.92" height="3.68" rx="1.84"/>
    </g>
    <g class="laptop-cls-16">
        <rect class="laptop-cls-3" x="999.03" y="361.81" width="8.92" height="3.68" rx="1.84"/>
    </g>
    <g class="laptop-cls-16">
        <rect class="laptop-cls-3" x="867.6" y="361.81" width="15.21" height="3.68" rx="1.84"/>
    </g>
    <g class="laptop-cls-16">
        <rect class="laptop-cls-3" x="887.22" y="361.81" width="5.21" height="3.68" rx="1.84"/>
    </g>
    <g class="laptop-cls-16">
        <rect class="laptop-cls-3" x="894.74" y="361.81" width="5.21" height="3.68" rx="1.84"/>
    </g>
</svg>