<svg id="Layer_1" data-name="Layer 1" xmlns="http://www.w3.org/2000/svg" viewBox="0 0 1068 1068"><defs><style>.cls-1{fill:#ff684a;}.cls-2{fill:#0071bc;}.cls-3{fill:#29abe2;}.cls-4{fill:#ff9b53;}.cls-5{fill:#59ba4e;}.cls-6{opacity:0.1;}.cls-7{fill:#fff;}</style></defs><path class="cls-1" d="M774.81,570.91A240.37,240.37,0,0,1,674.14,766.76C629.48,768.23,582.49,769,534,769s-95.48-.78-140.14-2.25A240.37,240.37,0,0,1,293.19,570.91c0-133,107.81-240.82,240.81-240.82S774.81,437.91,774.81,570.91Z"/><path class="cls-2" d="M1068,735.37c0,.16,0,.34,0,.5-.89,59.25-167.52,109.06-393.85,123.86-44.66,2.93-91.65,4.49-140.14,4.49s-95.48-1.56-140.14-4.49C167.53,844.93.9,795.12,0,735.87c0-.16,0-.34,0-.5s0-.32,0-.48c1.37-29.8,130.17-55.42,314.78-66.93,66.88-4.19,141.08-6.51,219.21-6.51s152.33,2.32,219.21,6.51c184.61,11.51,313.41,37.13,314.78,66.93C1068,735.05,1068,735.23,1068,735.37Z"/><path class="cls-3" d="M1068,735.38c0,.15,0,.32,0,.48-1.86,40.59-240.22,73.44-534,73.44S1.87,776.45,0,735.86c0-.16,0-.33,0-.48s0-.33,0-.49c1.86-40.59,240.21-73.43,534-73.43s532.13,32.84,534,73.43C1068,735.05,1068,735.22,1068,735.38Z"/><path class="cls-4" d="M11.07,720.33l17.87-11.45L317.05,566.57l63.93,50,129.26-40.29,73.67-69.49,108.4,95.91,115.35,37.54,105.63-1.38,76.44,32,39.77,25.68,31,26.21c-156,11.64-323.18,18.73-500.26,19C364.77,742,181.18,733.81,11.07,720.33Z"/><path class="cls-5" d="M1029.5,696.55a218.55,218.55,0,0,1-26,8.08,205,205,0,0,1-26.37,4.58c-.2,0-.42.06-.68.07s-.56.08-.86.1l-1,.11-1.17.11a158.47,158.47,0,0,1-51-3.2c-16-3.51-30-8.34-48.74-10.12a166.05,166.05,0,0,0-25.76-.38,130,130,0,0,0-28.48,4.53c-19.5,5.55-27.69,13.76-59.22,13.16-3.58-.07-6.9-.24-10-.5-28.85-2.4-38.25-12.09-60-14.21a99.07,99.07,0,0,0-16-.17c-35.48,2.3-42.23,17.62-73.89,24.95a136,136,0,0,1-15.59,2.64c-.93.11-1.82.2-2.68.27-25.61,2.47-27-4.51-75.85-7.36-59-3.42-62.1,6.48-106.81,1.41-46.46-5.24-49.87-16.7-91.24-20.51-42.19-3.91-68.76,5.23-99.75,11.3-40,7.85-99.52,13-179.49-2.53L242.66,603.32q37.18-18.35,74.39-36.74,32,25,63.92,50,64.65-20.13,129.26-40.28l73.67-69.5q54.2,48,108.42,95.92l115.34,37.54L913.3,638.9l37.28,15.59,37.29,15.6Z"/><path class="cls-6" d="M317.05,566.58q-4.21,24.54-8.4,49.11l-81.12,79q-3.19,7-6.42,14.07c-4.18.91-8.4,1.82-12.68,2.66-40,7.85-99.52,13-179.49-2.53L242.66,603.32Q279.84,585,317.05,566.58Z"/><path class="cls-6" d="M583.9,506.83,582,542.37,563.9,584.11q-16.11,10.26-32.18,20.52H504.47q-18,25.62-36.08,51.28l-22.95,64.82a187.5,187.5,0,0,1-46-.11c-23.8-2.68-36.3-7-48.41-11.09q5.1-26.29,10.22-52.57Q371.1,636.8,381,616.61q64.65-20.13,129.26-40.28Z"/><path class="cls-6" d="M691.81,658.08q-.81,20.4-1.6,40.8a99.07,99.07,0,0,0-16-.17c-35.48,2.3-42.23,17.62-73.89,24.95-.09-.22-.18-.45-.28-.67l42.7-77.09Q667.28,652,691.81,658.08Z"/><path class="cls-6" d="M819.56,700.17c-.06.09-.09.17-.15.26-19.5,5.55-27.69,13.76-59.22,13.16-3.58-.07-6.9-.24-10-.5.1-1.34.21-2.69.32-4l45.76-29.8Q807.9,689.73,819.56,700.17Z"/><path class="cls-6" d="M922.39,706.4c-16-3.51-30-8.34-48.74-10.12q20.55-19.21,41.09-38.38Q918.59,682.13,922.39,706.4Z"/><path class="cls-7" d="M111.7,754a21.47,21.47,0,0,1,6-4.85,23.49,23.49,0,0,1,7.37-2.61,21,21,0,0,1,7.87.12,17,17,0,0,1,7,3.24,46.68,46.68,0,0,0-7.33-.9,35.33,35.33,0,0,0-7.06.5,43,43,0,0,0-6.92,1.8C116.34,752.09,114.09,753.06,111.7,754Z"/><path class="cls-7" d="M303.54,780a21.61,21.61,0,0,1,6-4.85,23.49,23.49,0,0,1,7.37-2.61,21,21,0,0,1,7.87.12,17,17,0,0,1,7,3.24,46.54,46.54,0,0,0-7.33-.9,35.44,35.44,0,0,0-7.06.5,43,43,0,0,0-6.92,1.8C308.18,778.05,305.93,779,303.54,780Z"/><path class="cls-7" d="M776.21,761.94a21.47,21.47,0,0,1,6-4.85,23.49,23.49,0,0,1,7.37-2.61,21,21,0,0,1,7.87.12,16.87,16.87,0,0,1,7,3.24,46.42,46.42,0,0,0-7.32-.9,35.49,35.49,0,0,0-7.07.5,43.14,43.14,0,0,0-6.91,1.8C780.85,760,778.59,761,776.21,761.94Z"/><path class="cls-7" d="M516.75,776.8a21.61,21.61,0,0,1,6-4.85,23.49,23.49,0,0,1,7.37-2.61,21,21,0,0,1,7.87.12,17,17,0,0,1,7,3.24,46.68,46.68,0,0,0-7.33-.9,35.33,35.33,0,0,0-7.06.5,43,43,0,0,0-6.92,1.8C521.39,774.87,519.14,775.84,516.75,776.8Z"/><path class="cls-7" d="M205,761a21.58,21.58,0,0,1,6-4.84,23.24,23.24,0,0,1,7.37-2.61,21,21,0,0,1,7.87.12,16.89,16.89,0,0,1,7,3.23,46.52,46.52,0,0,0-7.32-.89,36.24,36.24,0,0,0-7.07.49,43.69,43.69,0,0,0-6.91,1.81C209.6,759.07,207.35,760.05,205,761Z"/><path class="cls-7" d="M918.49,765.12a21.61,21.61,0,0,1,6-4.85,23.49,23.49,0,0,1,7.37-2.61,21,21,0,0,1,7.87.12,17,17,0,0,1,7,3.23,47.7,47.7,0,0,0-7.33-.89,35.44,35.44,0,0,0-7.06.5,42.6,42.6,0,0,0-6.91,1.8C923.13,763.19,920.88,764.16,918.49,765.12Z"/><path class="cls-7" d="M404.32,764.18a21.44,21.44,0,0,1,6-4.84,23.24,23.24,0,0,1,7.37-2.61,21,21,0,0,1,7.87.12,17,17,0,0,1,7,3.23,46.64,46.64,0,0,0-7.33-.89,35.33,35.33,0,0,0-7.06.49,44.09,44.09,0,0,0-6.92,1.81C409,762.25,406.71,763.23,404.32,764.18Z"/><path class="cls-7" d="M637.66,783.16a21.61,21.61,0,0,1,6-4.85A23.49,23.49,0,0,1,651,775.7a21,21,0,0,1,7.87.12,17,17,0,0,1,7,3.24,46.54,46.54,0,0,0-7.33-.9,35.44,35.44,0,0,0-7.06.5,43,43,0,0,0-6.92,1.8C642.3,781.23,640.05,782.2,637.66,783.16Z"/></svg>