<svg id="Layer_1" data-name="Layer 1" xmlns="http://www.w3.org/2000/svg" viewBox="0 0 512 456"><defs><style>.cls-1{fill:#e13238;}.cls-1,.cls-2,.cls-3{stroke:#000;stroke-miterlimit:10;stroke-width:1.75px;}.cls-2{fill:#e6a700;}.cls-3{fill:#009400;}</style></defs><polygon class="cls-1" points="279.09 241.33 279.09 214.67 256 201.34 232.91 214.67 232.91 241.33 256 254.66 279.09 241.33"/><polygon class="cls-1" points="232.91 241.33 232.91 214.67 209.82 201.34 186.73 214.67 186.73 241.33 209.82 254.66 232.91 241.33"/><polygon class="cls-1" points="325.27 241.33 325.27 214.67 302.18 201.34 279.09 214.67 279.09 241.33 302.18 254.66 325.27 241.33"/><polygon class="cls-1" points="256 201.34 256 174.67 232.91 161.34 209.82 174.67 209.82 201.34 232.91 214.67 256 201.34"/><polygon class="cls-1" points="302.18 201.34 302.18 174.67 279.09 161.34 256 174.67 256 201.34 279.09 214.67 302.18 201.34"/><polygon class="cls-1" points="256 281.33 256 254.66 232.91 241.33 209.82 254.66 209.82 281.33 232.91 294.66 256 281.33"/><polygon class="cls-1" points="302.18 281.33 302.18 254.66 279.09 241.33 256 254.66 256 281.33 279.09 294.66 302.18 281.33"/><polygon class="cls-2" points="186.73 241.33 186.73 214.67 163.64 201.34 140.54 214.67 140.54 241.33 163.64 254.66 186.73 241.33"/><polygon class="cls-2" points="371.45 241.33 371.45 214.67 348.36 201.34 325.27 214.67 325.27 241.33 348.36 254.66 371.45 241.33"/><polygon class="cls-2" points="209.82 201.34 209.82 174.67 186.73 161.34 163.64 174.67 163.64 201.34 186.73 214.67 209.82 201.34"/><polygon class="cls-2" points="348.36 201.34 348.36 174.67 325.27 161.34 302.18 174.67 302.18 201.34 325.27 214.67 348.36 201.34"/><polygon class="cls-2" points="209.82 281.33 209.82 254.66 186.73 241.33 163.64 254.66 163.64 281.33 186.73 294.66 209.82 281.33"/><polygon class="cls-2" points="348.36 281.33 348.36 254.66 325.27 241.33 302.18 254.66 302.18 281.33 325.27 294.66 348.36 281.33"/><polygon class="cls-2" points="232.91 321.32 232.91 294.66 209.82 281.33 186.73 294.66 186.73 321.32 209.82 334.65 232.91 321.32"/><polygon class="cls-2" points="325.27 321.32 325.27 294.66 302.18 281.33 279.09 294.66 279.09 321.32 302.18 334.65 325.27 321.32"/><polygon class="cls-2" points="279.09 321.32 279.09 294.66 256 281.33 232.91 294.66 232.91 321.32 256 334.65 279.09 321.32"/><polygon class="cls-2" points="279.09 134.68 279.09 161.34 302.18 174.67 325.27 161.34 325.27 134.68 302.18 121.35 279.09 134.68"/><polygon class="cls-2" points="186.73 134.68 186.73 161.34 209.82 174.67 232.91 161.34 232.91 134.68 209.82 121.35 186.73 134.68"/><polygon class="cls-2" points="232.91 134.68 232.91 161.34 256 174.67 279.09 161.34 279.09 134.68 256 121.35 232.91 134.68"/><polygon class="cls-2" points="140.54 241.33 140.54 214.67 117.45 201.34 94.36 214.67 94.36 241.33 117.45 254.66 140.54 241.33"/><polygon class="cls-2" points="94.36 241.33 94.36 214.67 71.27 201.34 48.18 214.67 48.18 241.33 71.27 254.66 94.36 241.33"/><polygon class="cls-2" points="463.82 241.33 463.82 214.67 440.73 201.34 417.64 214.67 417.64 241.33 440.73 254.66 463.82 241.33"/><polygon class="cls-2" points="417.64 241.33 417.64 214.67 394.55 201.34 371.45 214.67 371.45 241.33 394.55 254.66 417.64 241.33"/><polygon class="cls-2" points="163.64 201.34 163.64 174.67 140.54 161.34 117.45 174.67 117.45 201.34 140.54 214.67 163.64 201.34"/><polygon class="cls-2" points="117.45 201.34 117.45 174.67 94.36 161.34 71.27 174.67 71.27 201.34 94.36 214.67 117.45 201.34"/><polygon class="cls-2" points="440.73 201.34 440.73 174.67 417.64 161.34 394.55 174.67 394.55 201.34 417.64 214.67 440.73 201.34"/><polygon class="cls-2" points="394.55 201.34 394.55 174.67 371.45 161.34 348.36 174.67 348.36 201.34 371.45 214.67 394.55 201.34"/><polygon class="cls-2" points="163.64 281.33 163.64 254.66 140.54 241.33 117.45 254.66 117.45 281.33 140.54 294.66 163.64 281.33"/><polygon class="cls-2" points="117.45 281.33 117.45 254.66 94.36 241.33 71.27 254.66 71.27 281.33 94.36 294.66 117.45 281.33"/><polygon class="cls-2" points="440.73 281.33 440.73 254.66 417.64 241.33 394.55 254.66 394.55 281.33 417.64 294.66 440.73 281.33"/><polygon class="cls-2" points="394.55 281.33 394.55 254.66 371.45 241.33 348.36 254.66 348.36 281.33 371.45 294.66 394.55 281.33"/><polygon class="cls-2" points="186.73 321.32 186.73 294.66 163.64 281.33 140.54 294.66 140.54 321.32 163.64 334.65 186.73 321.32"/><polygon class="cls-2" points="140.54 321.32 140.54 294.66 117.45 281.33 94.36 294.66 94.36 321.32 117.45 334.65 140.54 321.32"/><polygon class="cls-2" points="417.64 321.32 417.64 294.66 394.55 281.33 371.45 294.66 371.45 321.32 394.55 334.65 417.64 321.32"/><polygon class="cls-2" points="371.45 321.32 371.45 294.66 348.36 281.33 325.27 294.66 325.27 321.32 348.36 334.65 371.45 321.32"/><polygon class="cls-2" points="209.82 361.31 209.82 334.65 186.73 321.32 163.64 334.65 163.64 361.31 186.73 374.65 209.82 361.31"/><polygon class="cls-2" points="394.55 361.31 394.55 334.65 371.45 321.32 348.36 334.65 348.36 361.31 371.45 374.65 394.55 361.31"/><polygon class="cls-2" points="348.36 361.31 348.36 334.65 325.27 321.32 302.18 334.65 302.18 361.31 325.27 374.65 348.36 361.31"/><polygon class="cls-2" points="302.18 361.31 302.18 334.65 279.09 321.32 256 334.65 256 361.31 279.09 374.65 302.18 361.31"/><polygon class="cls-2" points="256 361.31 256 334.65 232.91 321.32 209.82 334.65 209.82 361.31 232.91 374.65 256 361.31"/><polygon class="cls-2" points="186.73 401.31 186.73 374.65 163.64 361.31 140.54 374.65 140.54 401.31 163.64 414.64 186.73 401.31"/><polygon class="cls-2" points="371.45 401.31 371.45 374.65 348.36 361.31 325.27 374.65 325.27 401.31 348.36 414.64 371.45 401.31"/><polygon class="cls-2" points="325.27 401.31 325.27 374.65 302.18 361.31 279.09 374.65 279.09 401.31 302.18 414.64 325.27 401.31"/><polygon class="cls-2" points="279.09 401.31 279.09 374.65 256 361.31 232.91 374.65 232.91 401.31 256 414.64 279.09 401.31"/><polygon class="cls-2" points="232.91 401.31 232.91 374.65 209.82 361.31 186.73 374.65 186.73 401.31 209.82 414.64 232.91 401.31"/><polygon class="cls-2" points="325.27 134.68 325.27 161.34 348.36 174.67 371.45 161.34 371.45 134.68 348.36 121.35 325.27 134.68"/><polygon class="cls-2" points="371.45 134.68 371.45 161.34 394.55 174.67 417.64 161.34 417.64 134.68 394.55 121.35 371.45 134.68"/><polygon class="cls-2" points="94.36 134.68 94.36 161.34 117.45 174.67 140.54 161.34 140.54 134.68 117.45 121.35 94.36 134.68"/><polygon class="cls-2" points="140.54 134.68 140.54 161.34 163.64 174.67 186.73 161.34 186.73 134.68 163.64 121.35 140.54 134.68"/><polygon class="cls-2" points="302.18 94.69 302.18 121.35 325.27 134.68 348.36 121.35 348.36 94.69 325.27 81.35 302.18 94.69"/><polygon class="cls-2" points="348.36 94.69 348.36 121.35 371.45 134.68 394.55 121.35 394.55 94.69 371.45 81.35 348.36 94.69"/><polygon class="cls-2" points="117.45 94.69 117.45 121.35 140.54 134.68 163.64 121.35 163.64 94.69 140.54 81.35 117.45 94.69"/><polygon class="cls-2" points="163.64 94.69 163.64 121.35 186.73 134.68 209.82 121.35 209.82 94.69 186.73 81.35 163.64 94.69"/><polygon class="cls-2" points="209.82 94.69 209.82 121.35 232.91 134.68 256 121.35 256 94.69 232.91 81.35 209.82 94.69"/><polygon class="cls-2" points="256 94.69 256 121.35 279.09 134.68 302.18 121.35 302.18 94.69 279.09 81.35 256 94.69"/><polygon class="cls-2" points="325.27 54.69 325.27 81.35 348.36 94.69 371.45 81.35 371.45 54.69 348.36 41.36 325.27 54.69"/><polygon class="cls-2" points="140.54 54.69 140.54 81.35 163.64 94.69 186.73 81.35 186.73 54.69 163.64 41.36 140.54 54.69"/><polygon class="cls-2" points="186.73 54.69 186.73 81.35 209.82 94.69 232.91 81.35 232.91 54.69 209.82 41.36 186.73 54.69"/><polygon class="cls-2" points="232.91 54.69 232.91 81.35 256 94.69 279.09 81.35 279.09 54.69 256 41.36 232.91 54.69"/><polygon class="cls-2" points="279.09 54.69 279.09 81.35 302.18 94.69 325.27 81.35 325.27 54.69 302.18 41.36 279.09 54.69"/><polygon class="cls-2" points="163.64 361.31 163.64 334.65 140.54 321.32 117.45 334.65 117.45 361.31 140.54 374.65 163.64 361.31"/><polygon class="cls-3" points="486.91 281.33 486.91 254.66 463.82 241.33 440.73 254.66 440.73 281.33 463.82 294.66 486.91 281.33"/><polygon class="cls-3" points="463.82 321.32 463.82 294.66 440.73 281.33 417.64 294.66 417.64 321.32 440.73 334.65 463.82 321.32"/><polygon class="cls-3" points="440.73 361.31 440.73 334.65 417.64 321.32 394.55 334.65 394.55 361.31 417.64 374.65 440.73 361.31"/><polygon class="cls-3" points="417.64 401.31 417.64 374.65 394.55 361.31 371.45 374.65 371.45 401.31 394.55 414.64 417.64 401.31"/><polygon class="cls-3" points="394.55 441.31 394.55 414.64 371.45 401.31 348.36 414.64 348.36 441.31 371.45 454.64 394.55 441.31"/><polygon class="cls-3" points="163.64 441.31 163.64 414.64 140.54 401.31 117.45 414.64 117.45 441.31 140.54 454.64 163.64 441.31"/><polygon class="cls-3" points="348.36 441.31 348.36 414.64 325.27 401.31 302.18 414.64 302.18 441.31 325.27 454.64 348.36 441.31"/><polygon class="cls-3" points="302.18 441.31 302.18 414.64 279.09 401.31 256 414.64 256 441.31 279.09 454.64 302.18 441.31"/><polygon class="cls-3" points="256 441.31 256 414.64 232.91 401.31 209.82 414.64 209.82 441.31 232.91 454.64 256 441.31"/><polygon class="cls-3" points="209.82 441.31 209.82 414.64 186.73 401.31 163.64 414.64 163.64 441.31 186.73 454.64 209.82 441.31"/><polygon class="cls-3" points="510 241.33 510 214.67 486.91 201.34 463.82 214.67 463.82 241.33 486.91 254.66 510 241.33"/><polygon class="cls-3" points="486.91 201.34 486.91 174.67 463.82 161.34 440.73 174.67 440.73 201.34 463.82 214.67 486.91 201.34"/><polygon class="cls-3" points="417.64 134.68 417.64 161.34 440.73 174.67 463.82 161.34 463.82 134.68 440.73 121.35 417.64 134.68"/><polygon class="cls-3" points="394.55 94.69 394.55 121.35 417.64 134.68 440.73 121.35 440.73 94.69 417.64 81.35 394.55 94.69"/><polygon class="cls-3" points="371.45 54.69 371.45 81.35 394.55 94.69 417.64 81.35 417.64 54.69 394.55 41.36 371.45 54.69"/><polygon class="cls-3" points="71.27 201.34 71.27 174.67 48.18 161.34 25.09 174.67 25.09 201.34 48.18 214.67 71.27 201.34"/><polygon class="cls-3" points="94.36 161.34 94.36 134.68 71.27 121.35 48.18 134.68 48.18 161.34 71.27 174.67 94.36 161.34"/><polygon class="cls-3" points="71.27 94.69 71.27 121.35 94.36 134.68 117.45 121.35 117.45 94.69 94.36 81.35 71.27 94.69"/><polygon class="cls-3" points="94.36 54.69 94.36 81.35 117.45 94.69 140.54 81.35 140.54 54.69 117.45 41.36 94.36 54.69"/><polygon class="cls-3" points="117.45 14.7 117.45 41.36 140.54 54.69 163.64 41.36 163.64 14.7 140.54 1.36 117.45 14.7"/><polygon class="cls-3" points="348.36 14.7 348.36 41.36 371.45 54.69 394.55 41.36 394.55 14.7 371.45 1.36 348.36 14.7"/><polygon class="cls-3" points="163.64 14.7 163.64 41.36 186.73 54.69 209.82 41.36 209.82 14.7 186.73 1.36 163.64 14.7"/><polygon class="cls-3" points="209.82 14.7 209.82 41.36 232.91 54.69 256 41.36 256 14.7 232.91 1.36 209.82 14.7"/><polygon class="cls-3" points="256 14.7 256 41.36 279.09 54.69 302.18 41.36 302.18 14.7 279.09 1.36 256 14.7"/><polygon class="cls-3" points="302.18 14.7 302.18 41.36 325.27 54.69 348.36 41.36 348.36 14.7 325.27 1.36 302.18 14.7"/><polygon class="cls-3" points="48.18 241.33 48.18 214.67 25.09 201.34 2 214.67 2 241.33 25.09 254.66 48.18 241.33"/><polygon class="cls-3" points="71.27 281.33 71.27 254.66 48.18 241.33 25.09 254.66 25.09 281.33 48.18 294.66 71.27 281.33"/><polygon class="cls-3" points="94.36 321.32 94.36 294.66 71.27 281.33 48.18 294.66 48.18 321.32 71.27 334.65 94.36 321.32"/><polygon class="cls-3" points="140.54 401.31 140.54 374.65 117.45 361.31 94.36 374.65 94.36 401.31 117.45 414.64 140.54 401.31"/><polygon class="cls-3" points="117.45 361.31 117.45 334.65 94.36 321.32 71.27 334.65 71.27 361.31 94.36 374.65 117.45 361.31"/></svg>