<svg id="Layer_1" data-name="Layer 1" xmlns="http://www.w3.org/2000/svg" viewBox="0 0 160 160"><defs><style>.cls-1{fill:#f88c51;}.cls-2{fill:#ffa653;}.cls-3{fill:#db7b47;}.cls-4{fill:#ff9b53;}</style></defs><path class="cls-1" d="M130.37,46.11a65.08,65.08,0,0,1-4.16-12.38c-4.66-1.32-9.25-2.71-13.72-4.19l-7.22,9.59c2.33.76,4.67,1.48,7,2.17,4.71,14.77,14.41,28,27.63,38.7-13.22,10.66-22.92,23.93-27.63,38.7-2.37.69-4.71,1.41-7,2.17l7.22,9.59c4.47-1.48,9.06-2.87,13.72-4.19a65.08,65.08,0,0,1,4.16-12.38C136.3,100.69,146.63,89.05,160,80,146.63,71,136.3,59.31,130.37,46.11Z"/><path class="cls-2" d="M20.06,80C33.28,69.34,43,56.07,47.69,41.3c2.37-.69,4.73-1.41,7.05-2.17l-7.23-9.59C43,31,38.45,32.41,33.79,33.73a65.08,65.08,0,0,1-4.16,12.38C23.7,59.31,13.37,71,0,80c13.37,9,23.7,20.69,29.63,33.89a65.08,65.08,0,0,1,4.16,12.38c4.66,1.32,9.25,2.71,13.72,4.19l7.23-9.59c-2.32-.76-4.68-1.48-7.05-2.17C43,103.93,33.28,90.66,20.06,80Z"/><path class="cls-3" d="M101.06,107a40.09,40.09,0,0,1,7.7-2.59c.82-2.9,1.69-5.75,2.6-8.53l-6-4.48c-.47,1.44-.91,2.9-1.35,4.37-9.17,2.93-17.42,9-24,17.17-6.63-8.21-14.88-14.24-24-17.17-.44-1.47-.88-2.93-1.35-4.37l-6,4.48c.91,2.78,1.78,5.63,2.6,8.53a40.09,40.09,0,0,1,7.7,2.59c8.2,3.68,15.43,10.1,21.06,18.41C85.63,117.09,92.86,110.67,101.06,107Z"/><path class="cls-4" d="M80,47.07c6.63,8.21,14.88,14.24,24,17.17.44,1.47.88,2.94,1.35,4.38l6-4.49c-.91-2.78-1.78-5.63-2.6-8.53a40.09,40.09,0,0,1-7.7-2.59C92.86,49.33,85.63,42.91,80,34.6,74.37,42.91,67.14,49.33,58.94,53a40.09,40.09,0,0,1-7.7,2.59c-.82,2.9-1.69,5.75-2.6,8.53l6,4.49c.47-1.44.91-2.91,1.35-4.38C65.12,61.31,73.37,55.28,80,47.07Z"/></svg>