<svg id="Layer_1" data-name="Layer 1" xmlns="http://www.w3.org/2000/svg" viewBox="0 0 1068 1068"><defs><style>.cls-1{fill:#4d4d4d;}.cls-2{fill:#ff9b53;}.cls-3{fill:#75571c;}.cls-4{fill:#303030;}.cls-5{fill:#6b563c;}.cls-6{fill:#eb984b;}</style></defs><polygon class="cls-1" points="996.46 801 996.46 267 534 0 71.54 267 71.54 801 534 1068 996.46 801"/><rect class="cls-2" x="236.27" y="260.92" width="8.49" height="37.31" transform="translate(-55.29 499.81) rotate(-85.96)"/><rect class="cls-2" x="243.12" y="258.18" width="37.31" height="8.48" transform="matrix(0.14, -0.99, 0.99, 0.14, -35.25, 484.16)"/><rect class="cls-2" x="326.44" y="212.88" width="8.49" height="37.31" transform="translate(-8.03 11.92) rotate(-2.04)"/><rect class="cls-2" x="345.72" y="232.74" width="8.48" height="37.31" transform="translate(76.31 584.24) rotate(-86.27)"/><rect class="cls-2" x="439.19" y="237.22" width="37.31" height="8.49" transform="translate(171.39 672.59) rotate(-84.21)"/><rect class="cls-2" x="469.76" y="246.12" width="8.49" height="37.31" transform="matrix(0.25, -0.97, 0.97, 0.25, 97.36, 655.83)"/><rect class="cls-2" x="493.7" y="317.08" width="8.49" height="37.31" transform="matrix(0.14, -0.99, 0.99, 0.14, 94.62, 780.71)"/><rect class="cls-2" x="454.8" y="346.49" width="37.31" height="8.49" transform="translate(-11.3 685.68) rotate(-71.17)"/><rect class="cls-2" x="585.9" y="226.73" width="8.49" height="37.31" transform="translate(-44.48 169.65) rotate(-15.77)"/><rect class="cls-2" x="595.1" y="257" width="37.31" height="8.49" transform="translate(-25.48 70.65) rotate(-6.45)"/><rect class="cls-2" x="639.75" y="316.47" width="37.31" height="8.48" transform="translate(-62.94 194.18) rotate(-16.02)"/><rect class="cls-2" x="636.67" y="325.86" width="8.49" height="37.31" transform="translate(-7.86 15.03) rotate(-1.34)"/><rect class="cls-2" x="656.23" y="441.61" width="37.31" height="8.48" transform="translate(-34.98 58.11) rotate(-4.81)"/><rect class="cls-2" x="635.18" y="461.66" width="37.31" height="8.49" transform="translate(105.83 1052.64) rotate(-82.43)"/><rect class="cls-2" x="594.74" y="491.29" width="8.49" height="37.31" transform="translate(-108 164.99) rotate(-14.4)"/><rect class="cls-2" x="557.03" y="488.05" width="37.31" height="8.49" transform="translate(-10.71 12.81) rotate(-1.26)"/><rect class="cls-2" x="827.54" y="324.88" width="8.48" height="37.31" transform="translate(-53.7 182.93) rotate(-12.16)"/><rect class="cls-2" x="835.71" y="357.13" width="37.31" height="8.49" transform="translate(-7.46 18.16) rotate(-1.21)"/><rect class="cls-2" x="879.11" y="415.31" width="37.31" height="8.48" transform="translate(-85.88 299.39) rotate(-18.08)"/><rect class="cls-2" x="877.62" y="425.25" width="8.48" height="37.31" transform="translate(-39.31 88.7) rotate(-5.63)"/><rect class="cls-2" x="881.55" y="527.97" width="37.31" height="8.49" transform="translate(-145.51 522.24) rotate(-30.05)"/><rect class="cls-2" x="882.84" y="541.31" width="8.49" height="37.31" transform="translate(-79.23 151.66) rotate(-9.36)"/><rect class="cls-2" x="825.48" y="588.66" width="8.49" height="37.31" transform="translate(-175.06 388.97) rotate(-23.94)"/><rect class="cls-2" x="784.88" y="587.18" width="37.31" height="8.49" transform="translate(-34.97 50.72) rotate(-3.54)"/><rect class="cls-2" x="872.85" y="680.84" width="37.31" height="8.49" transform="translate(-195.26 396.88) rotate(-22.69)"/><rect class="cls-2" x="871.68" y="692.21" width="8.49" height="37.31" transform="translate(-58.7 79.16) rotate(-5.01)"/><rect class="cls-2" x="817.95" y="743.56" width="8.49" height="37.31" transform="translate(-190.81 281.8) rotate(-17.46)"/><rect class="cls-2" x="793.7" y="725.33" width="8.49" height="37.31" transform="translate(35.4 1524.22) rotate(-88.65)"/><rect class="cls-2" x="700.43" y="769.66" width="8.48" height="37.31" transform="translate(-213.52 263.97) rotate(-18.48)"/><rect class="cls-2" x="675.89" y="750.96" width="8.49" height="37.31" transform="translate(-125.27 1406.95) rotate(-86.89)"/><rect class="cls-2" x="614.87" y="709.22" width="37.31" height="8.49" transform="translate(-215.07 277.26) rotate(-21.19)"/><rect class="cls-2" x="645.7" y="669.44" width="8.48" height="37.31" transform="translate(-35.16 34.99) rotate(-3)"/><rect class="cls-2" x="198.16" y="280.25" width="25" height="6.95" transform="translate(-102.82 120.61) rotate(-25.92)"/><rect class="cls-2" x="217.88" y="253.27" width="6.95" height="25" transform="translate(-11.42 9.94) rotate(-2.51)"/><rect class="cls-2" x="257.38" y="219.48" width="6.95" height="25" transform="translate(-55.45 84.31) rotate(-16.62)"/><rect class="cls-2" x="273.22" y="233.88" width="6.95" height="25" transform="translate(-18.69 470.02) rotate(-78.81)"/><rect class="cls-2" x="319.7" y="189.93" width="6.95" height="25" transform="translate(-58.09 210) rotate(-33.2)"/><rect class="cls-2" x="329.89" y="207.62" width="25" height="6.95" transform="translate(-26.79 51.41) rotate(-8.27)"/><rect class="cls-2" x="366.42" y="242.12" width="25" height="6.95" transform="translate(-72.53 255.14) rotate(-34.16)"/><rect class="cls-2" x="365.74" y="252.59" width="6.95" height="25" transform="translate(-13.12 19.3) rotate(-2.94)"/><rect class="cls-2" x="449.03" y="200.2" width="6.95" height="25" transform="translate(-39.77 300.27) rotate(-35.26)"/><rect class="cls-2" x="459.66" y="218.17" width="25" height="6.95" transform="translate(-19.96 48.79) rotate(-5.79)"/><rect class="cls-2" x="491.3" y="261.8" width="25" height="6.95" transform="translate(-60.16 186.92) rotate(-19.86)"/><rect class="cls-2" x="478.65" y="278.51" width="25" height="6.95" transform="translate(174.98 751.86) rotate(-85.93)"/><rect class="cls-2" x="515.57" y="330.42" width="25" height="6.95" transform="translate(-84.87 212.89) rotate(-21.14)"/><rect class="cls-2" x="513.32" y="338.39" width="6.95" height="25" transform="translate(-10.52 16.02) rotate(-1.76)"/><rect class="cls-2" x="466.05" y="368.22" width="6.95" height="25" transform="translate(-57.19 84.12) rotate(-9.65)"/><rect class="cls-2" x="451.65" y="353.73" width="6.95" height="25" transform="translate(15.6 751.03) rotate(-80.03)"/><rect class="cls-2" x="571.71" y="207.29" width="6.95" height="25" transform="translate(49.46 540.35) rotate(-52.29)"/><rect class="cls-2" x="583.6" y="218.06" width="25" height="6.95" transform="translate(-33.99 307.6) rotate(-28.16)"/><rect class="cls-2" x="628.55" y="246.75" width="25" height="6.95" transform="translate(13.48 532.56) rotate(-45.55)"/><rect class="cls-2" x="634.16" y="257.95" width="6.95" height="25" transform="translate(-54.42 298.29) rotate(-25.29)"/><rect class="cls-2" x="669.15" y="300.77" width="25" height="6.95" transform="translate(116.72 792.16) rotate(-64.87)"/><rect class="cls-2" x="681.15" y="312.42" width="6.95" height="25" transform="translate(-43.45 535.13) rotate(-41.49)"/><rect class="cls-2" x="646.6" y="359.61" width="6.95" height="25" transform="translate(-75.12 559.62) rotate(-44.28)"/><rect class="cls-2" x="617.64" y="365.23" width="25" height="6.95" transform="translate(-98.12 317.23) rotate(-26.29)"/><rect class="cls-2" x="689.8" y="431.96" width="25" height="6.95" transform="translate(-101.84 625.67) rotate(-45.11)"/><rect class="cls-2" x="695.88" y="442.82" width="6.95" height="25" transform="translate(-131.93 382) rotate(-28.03)"/><rect class="cls-2" x="654.45" y="482.55" width="6.95" height="25" transform="translate(-161.76 417.21) rotate(-31.54)"/><rect class="cls-2" x="626.69" y="483.67" width="25" height="6.95" transform="translate(-91.57 152.69) rotate(-12.72)"/><rect class="cls-2" x="611.21" y="521.33" width="6.95" height="25" transform="translate(-143.71 829.89) rotate(-62.3)"/><rect class="cls-2" x="582.17" y="533.28" width="25" height="6.95" transform="translate(-205.79 568.27) rotate(-44.32)"/><rect class="cls-2" x="535.03" y="497.34" width="25" height="6.95" transform="translate(-194.06 475.34) rotate(-40.48)"/><rect class="cls-2" x="547.79" y="469.11" width="6.95" height="25" transform="translate(-160.08 308.9) rotate(-27.49)"/><rect class="cls-2" x="814.22" y="305.5" width="6.95" height="25" transform="translate(82.4 796.65) rotate(-54.31)"/><rect class="cls-2" x="824.56" y="313.37" width="25" height="6.95" transform="translate(6.06 649.26) rotate(-42.54)"/><rect class="cls-2" x="868.03" y="347.52" width="25" height="6.95" transform="translate(70.57 843.43) rotate(-53.03)"/><rect class="cls-2" x="877.44" y="358.16" width="6.95" height="25" transform="translate(-35.82 640.82) rotate(-39.24)"/><rect class="cls-2" x="907.81" y="398.75" width="25" height="6.95" transform="translate(194.85 1096.81) rotate(-67.36)"/><rect class="cls-2" x="921.59" y="409.3" width="6.95" height="25" transform="translate(6.85 858.32) rotate(-49.94)"/><rect class="cls-2" x="890.64" y="456.86" width="6.95" height="25" transform="translate(9.59 956.56) rotate(-56.54)"/><rect class="cls-2" x="862.13" y="467.61" width="25" height="6.95" transform="translate(-83.9 732.08) rotate(-43.54)"/><rect class="cls-2" x="905.07" y="506.96" width="25" height="6.95" transform="translate(320.17 1373.91) rotate(-84.41)"/><rect class="cls-2" x="924.76" y="514.27" width="6.95" height="25" transform="translate(138.64 1244.85) rotate(-71.86)"/><rect class="cls-2" x="898.41" y="570.1" width="6.95" height="25" transform="translate(48.66 1234.38) rotate(-70.24)"/><rect class="cls-2" x="869.83" y="584.67" width="25" height="6.95" transform="translate(-127.39 912.01) rotate(-51.47)"/><rect class="cls-2" x="837.29" y="620.49" width="25" height="6.95" transform="translate(-19.39 27.3) rotate(-1.82)"/><rect class="cls-2" x="820.01" y="632.44" width="25" height="6.95" transform="translate(-73.9 1161.15) rotate(-67.47)"/><rect class="cls-2" x="768.46" y="600.96" width="25" height="6.95" transform="translate(-39.32 1154.32) rotate(-71.57)"/><rect class="cls-2" x="771.86" y="572.05" width="6.95" height="25" transform="translate(-170.7 803.29) rotate(-50.03)"/><rect class="cls-2" x="904.67" y="652.9" width="6.95" height="25" transform="translate(-29.33 42) rotate(-2.61)"/><rect class="cls-2" x="917.36" y="668.44" width="6.95" height="25" transform="translate(35.69 1407.67) rotate(-75.87)"/><rect class="cls-2" x="886.17" y="720.12" width="6.95" height="25" transform="translate(-44.46 1407.63) rotate(-75.32)"/><rect class="cls-2" x="860.16" y="737.48" width="25" height="6.95" transform="translate(-151.02 1253.42) rotate(-66.93)"/><rect class="cls-2" x="836.8" y="768.02" width="6.95" height="25" transform="translate(26.69 1588.81) rotate(-87.7)"/><rect class="cls-2" x="811.61" y="788.49" width="25" height="6.95" transform="translate(-175.72 1345.77) rotate(-72.84)"/><rect class="cls-2" x="762.46" y="751.8" width="25" height="6.95" transform="translate(-202.08 1220.44) rotate(-69.72)"/><rect class="cls-2" x="764.78" y="725.19" width="6.95" height="25" transform="translate(-243.42 1070.72) rotate(-62.06)"/><rect class="cls-2" x="719.58" y="794.34" width="6.95" height="25" transform="translate(-130.15 1474.56) rotate(-86.18)"/><rect class="cls-2" x="695.99" y="814.86" width="25" height="6.95" transform="translate(-217.23 1379.29) rotate(-80.33)"/><rect class="cls-2" x="642.96" y="776.07" width="25" height="6.95" transform="translate(-343.81 976.45) rotate(-61.09)"/><rect class="cls-2" x="647.82" y="748.88" width="6.95" height="25" transform="translate(-346.38 853.72) rotate(-54.74)"/><rect class="cls-2" x="602.01" y="729.13" width="25" height="6.95" transform="translate(-191.62 1246.88) rotate(-82.55)"/><rect class="cls-2" x="600.68" y="704.15" width="6.95" height="25" transform="translate(-254.84 1091.77) rotate(-73.46)"/><rect class="cls-2" x="633.8" y="652.53" width="6.95" height="25" transform="translate(-210.59 1024.9) rotate(-69.22)"/><rect class="cls-2" x="642.91" y="655.28" width="25" height="6.95" transform="translate(-246.96 880.67) rotate(-58.96)"/><rect class="cls-2" x="190.54" y="294.59" width="16.75" height="5.92" transform="translate(-110.15 478.05) rotate(-86.52)"/><rect class="cls-2" x="188.26" y="279.09" width="5.92" height="16.75" transform="translate(-129.42 415.5) rotate(-78.14)"/><rect class="cls-2" x="210.39" y="241.11" width="5.92" height="16.75" transform="translate(-105.81 326.28) rotate(-62.99)"/><rect class="cls-2" x="217.4" y="243.58" width="16.75" height="5.92" transform="translate(-106.62 282.18) rotate(-53.64)"/><rect class="cls-2" x="246.01" y="210.59" width="5.92" height="16.75" transform="translate(0.86 438.9) rotate(-82.89)"/><rect class="cls-2" x="250.96" y="208.92" width="16.75" height="5.92" transform="translate(-9.67 411.34) rotate(-75.81)"/><rect class="cls-2" x="285.79" y="239.28" width="16.75" height="5.92" transform="translate(-78.45 322.09) rotate(-51.57)"/><rect class="cls-2" x="291.98" y="246.29" width="5.92" height="16.75" transform="translate(-93.37 287.19) rotate(-45.6)"/><rect class="cls-2" x="299.83" y="191.05" width="16.75" height="5.92" transform="translate(-38.01 81.02) rotate(-14.12)"/><rect class="cls-2" x="313.33" y="175.22" width="5.92" height="16.75" transform="translate(-0.8 1.38) rotate(-0.25)"/><rect class="cls-2" x="346.54" y="197.96" width="16.75" height="5.92" transform="translate(147.3 551.96) rotate(-88.91)"/><rect class="cls-2" x="359.84" y="203.23" width="5.92" height="16.75" transform="translate(59.23 501.86) rotate(-73.97)"/><rect class="cls-2" x="382.75" y="222.62" width="5.92" height="16.75" transform="translate(-61.57 185.47) rotate(-25.11)"/><rect class="cls-2" x="389.11" y="234.02" width="16.75" height="5.92" transform="matrix(0.98, -0.19, 0.19, 0.98, -37.91, 80.18)"/><rect class="cls-2" x="375.17" y="270.53" width="5.92" height="16.75" transform="matrix(0.16, -0.99, 0.99, 0.16, 42.76, 607.98)"/><rect class="cls-2" x="357.75" y="282.11" width="16.75" height="5.92" transform="translate(-52.36 485.52) rotate(-63.5)"/><rect class="cls-2" x="429.05" y="202.4" width="16.75" height="5.92" transform="translate(-43.88 162.21) rotate(-20.03)"/><rect class="cls-2" x="436.99" y="191.16" width="16.75" height="5.92" transform="translate(247.59 637.87) rotate(-89.53)"/><rect class="cls-2" x="476.62" y="209.06" width="16.75" height="5.92" transform="translate(249.93 686.27) rotate(-87.25)"/><rect class="cls-2" x="489.31" y="215.36" width="5.92" height="16.75" transform="translate(90.08 585.16) rotate(-66.39)"/><rect class="cls-2" x="510.9" y="244.45" width="5.92" height="16.75" transform="translate(-40.56 109.34) rotate(-11.69)"/><rect class="cls-2" x="520.9" y="253.72" width="5.92" height="16.75" transform="translate(197.54 748.54) rotate(-82.72)"/><rect class="cls-2" x="495.31" y="288.53" width="5.92" height="16.75" transform="translate(68.76 686.7) rotate(-73.01)"/><rect class="cls-2" x="477.14" y="298.39" width="16.75" height="5.92" transform="translate(-38.13 530.11) rotate(-55.43)"/><rect class="cls-2" x="534.57" y="312.92" width="5.92" height="16.75" transform="translate(-65.27 151.57) rotate(-15.14)"/><rect class="cls-2" x="545.11" y="321.68" width="5.92" height="16.75" transform="translate(175.25 849.98) rotate(-85.41)"/><rect class="cls-2" x="522.54" y="355.9" width="5.92" height="16.75" transform="translate(107.48 848.12) rotate(-83.9)"/><rect class="cls-2" x="504.72" y="367.74" width="16.75" height="5.92" transform="translate(-60.38 638.67) rotate(-60.89)"/><rect class="cls-2" x="471.51" y="388.67" width="16.75" height="5.92" transform="translate(-59 86.23) rotate(-9.68)"/><rect class="cls-2" x="461.38" y="398.24" width="16.75" height="5.92" transform="translate(-26.1 769.65) rotate(-77.11)"/><rect class="cls-2" x="433.22" y="369.39" width="16.75" height="5.92" transform="translate(9.27 755.42) rotate(-81.68)"/><rect class="cls-2" x="432.25" y="352.18" width="5.92" height="16.75" transform="translate(-74.55 604.58) rotate(-65.22)"/><rect class="cls-2" x="552.45" y="216.26" width="16.75" height="5.92" transform="translate(75.7 575.92) rotate(-57.68)"/><rect class="cls-2" x="556.73" y="197.55" width="5.92" height="16.75" transform="translate(6.28 428.18) rotate(-42.08)"/><rect class="cls-2" x="599.52" y="200.29" width="5.92" height="16.75" transform="translate(-14.88 367.98) rotate(-33.57)"/><rect class="cls-2" x="606.7" y="210.08" width="16.75" height="5.92" transform="translate(-35.74 200.89) rotate(-18.03)"/><rect class="cls-2" x="640.49" y="227.47" width="5.92" height="16.75" transform="matrix(0.65, -0.76, 0.76, 0.65, 45.41, 570.51)"/><rect class="cls-2" x="648.45" y="233.78" width="16.75" height="5.92" transform="translate(-22.95 396.01) rotate(-33.01)"/><rect class="cls-2" x="641.21" y="273.65" width="16.75" height="5.92" transform="translate(-33.03 456.92) rotate(-37.86)"/><rect class="cls-2" x="643.02" y="281.19" width="5.92" height="16.75" transform="translate(-60.9 251.4) rotate(-21.05)"/><rect class="cls-2" x="675.76" y="283.02" width="5.92" height="16.75" transform="translate(268.08 905.36) rotate(-79.46)"/><rect class="cls-2" x="682.56" y="282.6" width="16.75" height="5.92" transform="translate(111.29 757.73) rotate(-61.62)"/><rect class="cls-2" x="690.31" y="325.27" width="16.75" height="5.92" transform="translate(-21.29 606.66) rotate(-46.31)"/><rect class="cls-2" x="694.36" y="333.03" width="5.92" height="16.75" transform="translate(-75.18 419.25) rotate(-31.84)"/><rect class="cls-2" x="655.74" y="371.63" width="16.75" height="5.92" transform="translate(-46.8 650.21) rotate(-50.62)"/><rect class="cls-2" x="661.42" y="378.94" width="5.92" height="16.75" transform="translate(-89.3 540.21) rotate(-41.71)"/><rect class="cls-2" x="620.65" y="372.81" width="5.92" height="16.75" transform="translate(-106.56 413.38) rotate(-33.96)"/><rect class="cls-2" x="603.2" y="375.27" width="16.75" height="5.92" transform="translate(-106.36 337.55) rotate(-28.49)"/><rect class="cls-2" x="700.8" y="414.21" width="5.92" height="16.75" transform="translate(-3.3 839.64) rotate(-61.52)"/><rect class="cls-2" x="708.38" y="417.42" width="16.75" height="5.92" transform="translate(-76.5 667.79) rotate(-47.71)"/><rect class="cls-2" x="702.59" y="457.3" width="16.75" height="5.92" transform="translate(-111.54 662.25) rotate(-46.72)"/><rect class="cls-2" x="706.86" y="464.98" width="5.92" height="16.75" transform="translate(-143.33 467) rotate(-33.27)"/><rect class="cls-2" x="662.23" y="497.06" width="16.75" height="5.92" transform="matrix(0.73, -0.68, 0.68, 0.73, -161.29, 587.64)"/><rect class="cls-2" x="666.43" y="504.1" width="5.92" height="16.75" transform="translate(-173.41 492.34) rotate(-36.07)"/><rect class="cls-2" x="626.07" y="489.65" width="5.92" height="16.75" transform="translate(-102.17 167.79) rotate(-14.06)"/><rect class="cls-2" x="610.49" y="488.94" width="16.75" height="5.92" transform="translate(-99.57 162.03) rotate(-13.82)"/><rect class="cls-2" x="621.12" y="529.19" width="16.75" height="5.92" transform="translate(-127.81 857.63) rotate(-63.47)"/><rect class="cls-2" x="629.99" y="535.55" width="5.92" height="16.75" transform="translate(-158.33 809.19) rotate(-59.21)"/><rect class="cls-2" x="589.09" y="542.6" width="5.92" height="16.75" transform="translate(-212.21 636.18) rotate(-48.99)"/><rect class="cls-2" x="571.85" y="548.83" width="16.75" height="5.92" transform="translate(-216.99 626.57) rotate(-48.92)"/><rect class="cls-2" x="541.73" y="505.64" width="5.92" height="16.75" transform="translate(-194.38 635.17) rotate(-52.65)"/><rect class="cls-2" x="524.55" y="512.62" width="16.75" height="5.92" transform="translate(-200.59 624.14) rotate(-52.47)"/><rect class="cls-2" x="530.52" y="472.72" width="16.75" height="5.92" transform="translate(-178.57 431.89) rotate(-37.94)"/><rect class="cls-2" x="537.52" y="455.45" width="5.92" height="16.75" transform="translate(-170.16 416.48) rotate(-36.82)"/><rect class="cls-2" x="795.6" y="315.33" width="16.75" height="5.92" transform="translate(173.11 909.64) rotate(-64.75)"/><rect class="cls-2" x="797.3" y="298.21" width="5.92" height="16.75" transform="translate(138.82 851.47) rotate(-60.44)"/><rect class="cls-2" x="836.07" y="295.81" width="5.92" height="16.75" transform="translate(154.04 876.27) rotate(-59.8)"/><rect class="cls-2" x="842.47" y="298.42" width="16.75" height="5.92" transform="translate(133.36 849.09) rotate(-56.86)"/><rect class="cls-2" x="876.93" y="330.73" width="5.92" height="16.75" transform="translate(349.7 1118.9) rotate(-76.86)"/><rect class="cls-2" x="882.27" y="330.08" width="16.75" height="5.92" transform="translate(297.2 1076) rotate(-71.89)"/><rect class="cls-2" x="884.15" y="369.87" width="16.75" height="5.92" transform="translate(163.85 1008.93) rotate(-63.79)"/><rect class="cls-2" x="893.32" y="375.78" width="5.92" height="16.75" transform="translate(145.94 1006.96) rotate(-62.89)"/><rect class="cls-2" x="908.37" y="387.9" width="16.75" height="5.92" transform="translate(-8.19 19.79) rotate(-1.23)"/><rect class="cls-2" x="916.76" y="379.35" width="16.75" height="5.92" transform="translate(541.07 1306.72) rotate(-89.89)"/><rect class="cls-2" x="927.36" y="418.59" width="16.75" height="5.92" transform="translate(393.78 1293.09) rotate(-82.38)"/><rect class="cls-2" x="939.91" y="422.96" width="5.92" height="16.75" transform="translate(351.17 1282.77) rotate(-79.79)"/><rect class="cls-2" x="897.27" y="464.99" width="16.75" height="5.92" transform="translate(323.25 1304.61) rotate(-82.48)"/><rect class="cls-2" x="909.86" y="469.16" width="5.92" height="16.75" transform="translate(301.82 1306.96) rotate(-81.24)"/><rect class="cls-2" x="869.95" y="475.35" width="5.92" height="16.75" transform="translate(28.54 1015.7) rotate(-61.21)"/><rect class="cls-2" x="854.09" y="484.51" width="16.75" height="5.92" transform="translate(89.91 1107.66) rotate(-68.23)"/><rect class="cls-2" x="902.05" y="495.36" width="16.75" height="5.92" transform="translate(-18.54 35.47) rotate(-2.21)"/><rect class="cls-2" x="914.17" y="481.41" width="5.92" height="16.75" transform="translate(-78.86 191.4) rotate(-11.43)"/><rect class="cls-2" x="934.17" y="519.69" width="16.75" height="5.92" transform="translate(168.46 1272.54) rotate(-73.1)"/><rect class="cls-2" x="945.37" y="523.86" width="5.92" height="16.75" transform="translate(246.98 1363.33) rotate(-79.14)"/><rect class="cls-2" x="907.24" y="575.72" width="16.75" height="5.92" transform="translate(137.89 1332.59) rotate(-76.4)"/><rect class="cls-2" x="918.88" y="580.19" width="5.92" height="16.75" transform="translate(154.54 1367.95) rotate(-78)"/><rect class="cls-2" x="878.08" y="594.84" width="5.92" height="16.75" transform="translate(-142.92 905.88) rotate(-50.86)"/><rect class="cls-2" x="861.76" y="602.08" width="16.75" height="5.92" transform="translate(-102.4 1026.22) rotate(-58.23)"/><rect class="cls-2" x="858.51" y="606.86" width="5.92" height="16.75" transform="translate(-55.82 86.81) rotate(-5.59)"/><rect class="cls-2" x="862.18" y="619.31" width="16.75" height="5.92" transform="translate(-85.82 142.23) rotate(-8.9)"/><rect class="cls-2" x="832.74" y="641.6" width="5.92" height="16.75" transform="translate(-35.79 1251.12) rotate(-72.47)"/><rect class="cls-2" x="817.15" y="652.58" width="16.75" height="5.92" transform="translate(-23.57 1280.24) rotate(-74.8)"/><rect class="cls-2" x="782" y="610.57" width="5.92" height="16.75" transform="translate(-50.47 1167.86) rotate(-71.56)"/><rect class="cls-2" x="766.87" y="621.52" width="16.75" height="5.92" transform="translate(1.61 1250.96) rotate(-77.85)"/><rect class="cls-2" x="751.47" y="579.49" width="16.75" height="5.92" transform="translate(-189.07 709.58) rotate(-45.1)"/><rect class="cls-2" x="755.9" y="563.39" width="5.92" height="16.75" transform="translate(-142.59 872.04) rotate(-55.42)"/><rect class="cls-2" x="896.36" y="643.17" width="5.92" height="16.75" transform="translate(109.42 1432.15) rotate(-80.58)"/><rect class="cls-2" x="903.88" y="636.2" width="5.92" height="16.75" transform="translate(-53.4 82.63) rotate(-5.07)"/><rect class="cls-2" x="928.46" y="673.6" width="16.75" height="5.92" transform="translate(-96.35 1194.19) rotate(-62.45)"/><rect class="cls-2" x="937.89" y="678.42" width="5.92" height="16.75" transform="translate(-21.4 1343.28) rotate(-70.43)"/><rect class="cls-2" x="906.63" y="730.31" width="5.92" height="16.75" transform="translate(-98.67 1335.7) rotate(-69.71)"/><rect class="cls-2" x="869.96" y="750.68" width="5.92" height="16.75" transform="translate(-282.29 698.72) rotate(-38.02)"/><rect class="cls-2" x="855.15" y="756.72" width="16.75" height="5.92" transform="translate(-228.51 1120.56) rotate(-59.63)"/><rect class="cls-2" x="849.37" y="771.32" width="16.75" height="5.92" transform="translate(-274.64 1004.36) rotate(-53.56)"/><rect class="cls-2" x="857.99" y="774.43" width="5.92" height="16.75" transform="translate(-87.56 1456.85) rotate(-77.68)"/><rect class="cls-2" x="822.7" y="802.07" width="5.92" height="16.75" transform="translate(-325.42 694.06) rotate(-38.69)"/><rect class="cls-2" x="807.08" y="807.69" width="16.75" height="5.92" transform="translate(-320.76 987.11) rotate(-53.66)"/><rect class="cls-2" x="773.01" y="765.07" width="5.92" height="16.75" transform="translate(-315 672.79) rotate(-39.64)"/><rect class="cls-2" x="757.97" y="771.23" width="16.75" height="5.92" transform="translate(-291.04 1036.1) rotate(-59.2)"/><rect class="cls-2" x="742.36" y="734.19" width="16.75" height="5.92" transform="translate(-297.25 643.74) rotate(-39.38)"/><rect class="cls-2" x="747.48" y="718.52" width="5.92" height="16.75" transform="translate(-279.03 905.02) rotate(-53.9)"/><rect class="cls-2" x="731.05" y="797.3" width="16.75" height="5.92" transform="translate(-313.07 1082.09) rotate(-62.25)"/><rect class="cls-2" x="740.73" y="801.18" width="5.92" height="16.75" transform="translate(-211.76 1353.21) rotate(-77.07)"/><rect class="cls-2" x="710.96" y="825.94" width="5.92" height="16.75" transform="translate(-348.53 1111.76) rotate(-64.08)"/><rect class="cls-2" x="695.53" y="835.69" width="16.75" height="5.92" transform="translate(-305.97 1261.7) rotate(-72.72)"/><rect class="cls-2" x="653.25" y="787.01" width="5.92" height="16.75" transform="translate(-372.82 861.38) rotate(-54.15)"/><rect class="cls-2" x="637.21" y="794.96" width="16.75" height="5.92" transform="translate(-359.42 1006.31) rotate(-62.74)"/><rect class="cls-2" x="626.84" y="757.18" width="16.75" height="5.92" transform="translate(-352.13 679.74) rotate(-45.46)"/><rect class="cls-2" x="631.75" y="740.37" width="5.92" height="16.75" transform="translate(-346.85 746.55) rotate(-49.58)"/><rect class="cls-2" x="617.9" y="739.21" width="5.92" height="16.75" transform="translate(-281.99 1107.04) rotate(-72)"/><rect class="cls-2" x="602.32" y="750.12" width="16.75" height="5.92" transform="translate(-276.43 1144.35) rotate(-74.76)"/><rect class="cls-2" x="579.74" y="717.46" width="16.75" height="5.92" transform="translate(-327.09 885.61) rotate(-61.01)"/><rect class="cls-2" x="581.99" y="700.48" width="5.92" height="16.75" transform="translate(-322.52 854.23) rotate(-59.57)"/><rect class="cls-2" x="613.14" y="664.94" width="16.75" height="5.92" transform="translate(-264.56 885.26) rotate(-60.84)"/><rect class="cls-2" x="615.36" y="648.07" width="5.92" height="16.75" transform="translate(-258.26 868.2) rotate(-60.29)"/><rect class="cls-2" x="652.44" y="634.34" width="5.92" height="16.75" transform="translate(-257.53 738.49) rotate(-50.43)"/><rect class="cls-2" x="659.04" y="638.82" width="16.75" height="5.92" transform="translate(-255.58 715.3) rotate(-48.43)"/><rect class="cls-3" x="279.52" y="263.55" width="10.78" height="55.69" transform="translate(-92.44 445.3) rotate(-67.83)"/><rect class="cls-3" x="293.17" y="270.65" width="55.69" height="10.78" transform="translate(-54.35 471.87) rotate(-68.24)"/><rect class="cls-3" x="414.79" y="279.08" width="55.69" height="10.78" transform="translate(-18.98 536.98) rotate(-61.41)"/><rect class="cls-3" x="449" y="293.15" width="10.78" height="55.69" transform="translate(-31.95 591.15) rotate(-64.29)"/><rect class="cls-3" x="562.43" y="285.35" width="55.69" height="10.78" transform="translate(199.25 819.95) rotate(-79.76)"/><rect class="cls-3" x="607.51" y="294.16" width="10.78" height="55.69" transform="translate(209.03 884.34) rotate(-82.03)"/><rect class="cls-3" x="623.59" y="414.2" width="10.78" height="55.69" transform="translate(73.96 973.99) rotate(-78.88)"/><rect class="cls-3" x="570.15" y="458.89" width="55.69" height="10.78" transform="translate(59.27 996.19) rotate(-82.46)"/><rect class="cls-3" x="802.54" y="383.71" width="55.69" height="10.78" transform="translate(289.66 1129.75) rotate(-78.97)"/><rect class="cls-3" x="847.15" y="393.04" width="10.78" height="55.69" transform="translate(300.66 1195.1) rotate(-80.79)"/><rect class="cls-3" x="851.02" y="510.42" width="10.78" height="55.69" transform="translate(220.64 1325) rotate(-83.21)"/><rect class="cls-3" x="797.61" y="557.23" width="55.69" height="10.78" transform="translate(168.84 1315.46) rotate(-83.18)"/><rect class="cls-3" x="841.12" y="662.68" width="10.78" height="55.69" transform="translate(104.04 1491.87) rotate(-86.39)"/><rect class="cls-3" x="789.81" y="711.21" width="55.69" height="10.78" transform="translate(70.36 1506.3) rotate(-87.81)"/><rect class="cls-3" x="674.5" y="737.62" width="55.69" height="10.78" transform="translate(-124.93 1343.83) rotate(-82.6)"/><rect class="cls-3" x="673.04" y="683.22" width="10.78" height="55.69" transform="translate(-129.68 1270.38) rotate(-81.03)"/><rect class="cls-4" x="485.38" y="626.74" width="38.31" height="286.59"/><rect class="cls-4" x="458.12" y="451.27" width="26.93" height="191.54" transform="translate(-159.42 195.64) rotate(-20.12)"/><rect class="cls-4" x="493.94" y="579.96" width="189.62" height="26.93" transform="translate(-206.78 336.7) rotate(-27.34)"/><rect class="cls-4" x="656.29" y="504.04" width="124.06" height="19.31" transform="translate(-164.78 515.38) rotate(-35.68)"/><rect class="cls-5" x="331.53" y="291.11" width="14.2" height="83.12" transform="translate(-135.7 313.96) rotate(-42.23)"/><rect class="cls-5" x="356.37" y="329.08" width="83.12" height="14.2" transform="translate(-122.94 343.48) rotate(-40.99)"/><rect class="cls-5" x="519.27" y="344.61" width="83.12" height="14.2" transform="translate(-53.91 597.34) rotate(-53.87)"/><rect class="cls-5" x="561.89" y="369.42" width="14.2" height="83.12" transform="translate(-105.83 604.05) rotate(-51.81)"/><rect class="cls-5" x="755.32" y="439.87" width="83.12" height="14.2" transform="translate(-71.99 729.58) rotate(-47.31)"/><rect class="cls-5" x="791.63" y="464.68" width="14.2" height="83.12" transform="translate(-119.21 733.49) rotate(-46.27)"/><rect class="cls-5" x="776.57" y="624.88" width="14.2" height="83.12" transform="translate(-199.56 968.96) rotate(-57.48)"/><rect class="cls-5" x="685.72" y="672.65" width="83.12" height="14.2" transform="translate(-229.52 954.57) rotate(-59.09)"/><rect class="cls-6" x="898.46" y="726.18" width="16.75" height="5.92" transform="translate(-223.82 1004.14) rotate(-52.47)"/><rect class="cls-4" x="426.29" y="414.36" width="127.13" height="19.31" transform="translate(-157.38 395.08) rotate(-38.32)"/><rect class="cls-4" x="393.4" y="347.72" width="19.31" height="127.5" transform="translate(-163.85 309.58) rotate(-35.4)"/><rect class="cls-4" x="698.63" y="535.35" width="19.31" height="126.63" transform="translate(-219.06 588.74) rotate(-39.59)"/></svg>