<svg id="Layer_1" data-name="Layer 1" xmlns="http://www.w3.org/2000/svg" viewBox="0 0 215 160"><defs><style>.cls-1{fill:#ff9b53;}.cls-2{fill:#f88c51;}.cls-3{fill:#ffa653;}.cls-4{fill:#db7b47;}.cls-5{fill:#dfe0df;}.cls-6{fill:#242526;}</style></defs><path class="cls-1" d="M107.5.7C93.87,12.36,76.42,22.5,56.13,30.59l6.46,8.56A219.78,219.78,0,0,0,107.5,16.3a219.44,219.44,0,0,0,44.93,22.85l6.44-8.56C138.58,22.5,121.13,12.36,107.5.7Z"/><path class="cls-2" d="M189,50.35a56,56,0,0,1-3.64-10.84c-4.08-1.15-8.1-2.37-12-3.66L167,44.24q3,1,6.15,1.9c4.12,12.92,12.61,24.53,24.18,33.86-11.57,9.33-20.06,20.94-24.18,33.86q-3.1.92-6.15,1.9l6.31,8.39c3.91-1.29,7.93-2.51,12-3.66A56,56,0,0,1,189,109.65C194.17,98.1,203.21,87.92,214.9,80,203.21,72.08,194.17,61.9,189,50.35Z"/><path class="cls-3" d="M17.65,80c11.57-9.33,20.06-20.94,24.18-33.86q3.11-.91,6.17-1.9l-6.33-8.39c-3.91,1.29-7.93,2.51-12,3.66A56,56,0,0,1,26,50.35C20.83,61.9,11.79,72.08.1,80,11.79,87.92,20.83,98.1,26,109.65a56,56,0,0,1,3.64,10.84c4.08,1.15,8.1,2.37,12,3.66L48,115.76q-3.06-1-6.17-1.9C37.71,100.94,29.22,89.33,17.65,80Z"/><path class="cls-4" d="M152.43,120.84A220,220,0,0,0,107.5,143.7a219.44,219.44,0,0,0-44.93-22.85l-6.44,8.56c20.29,8.09,37.74,18.23,51.37,29.89,13.63-11.66,31.08-21.8,51.37-29.9Z"/><path class="cls-5" d="M57.58,105.94a14.36,14.36,0,0,1-9.09-3.16,20.53,20.53,0,0,1-6.25-8.93A38.33,38.33,0,0,1,40,80a38.34,38.34,0,0,1,2.25-13.88,20.47,20.47,0,0,1,6.25-8.93,14.68,14.68,0,0,1,18.15,0A20.62,20.62,0,0,1,72.9,66.1,38.2,38.2,0,0,1,75.16,80,38.15,38.15,0,0,1,72.9,93.87a20.65,20.65,0,0,1-6.26,8.93A14.48,14.48,0,0,1,57.58,105.94Zm0-40.82a5.81,5.81,0,0,0-4.07,1.57,11,11,0,0,0-2.86,4.92A28.23,28.23,0,0,0,49.58,80a28.32,28.32,0,0,0,1.07,8.38,11,11,0,0,0,2.86,4.92,6.08,6.08,0,0,0,8.13,0,11,11,0,0,0,2.86-4.92A28.32,28.32,0,0,0,65.57,80a28.32,28.32,0,0,0-1.07-8.38,11,11,0,0,0-2.86-4.92A5.8,5.8,0,0,0,57.58,65.12Z"/><path class="cls-6" d="M57.58,55A13.41,13.41,0,0,1,66,58a19.42,19.42,0,0,1,6,8.5A37,37,0,0,1,74.16,80,37.08,37.08,0,0,1,72,93.51a19.48,19.48,0,0,1-6,8.5,13.66,13.66,0,0,1-16.92,0,19.52,19.52,0,0,1-5.93-8.52A37.13,37.13,0,0,1,41,80a37.27,37.27,0,0,1,2.18-13.52A19.39,19.39,0,0,1,49.1,58,13.44,13.44,0,0,1,57.58,55m0,40.81A6.83,6.83,0,0,0,62.31,94a11.85,11.85,0,0,0,3.14-5.36A29.28,29.28,0,0,0,66.57,80a29.24,29.24,0,0,0-1.12-8.68A11.8,11.8,0,0,0,62.31,66a7,7,0,0,0-9.47,0,11.8,11.8,0,0,0-3.14,5.36A29.24,29.24,0,0,0,48.58,80a29.28,29.28,0,0,0,1.12,8.68A11.85,11.85,0,0,0,52.84,94a6.84,6.84,0,0,0,4.74,1.82m0-42.81a15.47,15.47,0,0,0-9.71,3.35,21.61,21.61,0,0,0-6.56,9.35A39.29,39.29,0,0,0,39,80a39.19,39.19,0,0,0,2.32,14.22,21.56,21.56,0,0,0,6.56,9.36,15.65,15.65,0,0,0,19.38,0,21.56,21.56,0,0,0,6.58-9.35A39.31,39.31,0,0,0,76.16,80a39.27,39.27,0,0,0-2.33-14.25,21.5,21.5,0,0,0-6.58-9.35A15.44,15.44,0,0,0,57.58,53Zm0,40.81a4.87,4.87,0,0,1-3.4-1.31,9.89,9.89,0,0,1-2.57-4.47,27.29,27.29,0,0,1-1-8.08,27.29,27.29,0,0,1,1-8.08,9.93,9.93,0,0,1,2.57-4.48,5.05,5.05,0,0,1,6.79,0,9.93,9.93,0,0,1,2.57,4.48,27.29,27.29,0,0,1,1,8.08,27.29,27.29,0,0,1-1,8.08A9.89,9.89,0,0,1,61,92.54a4.86,4.86,0,0,1-3.39,1.31Z"/><path class="cls-5" d="M94.37,106a14.5,14.5,0,0,1-8.27-2.39A15.67,15.67,0,0,1,80.61,97a23.24,23.24,0,0,1-1.92-9.71V54.7h9.48V86.37A11.91,11.91,0,0,0,89,90.92a7,7,0,0,0,2.19,3,5.46,5.46,0,0,0,6.37,0,6.92,6.92,0,0,0,2.19-3,11.91,11.91,0,0,0,.82-4.55V54.7h9.49V87.25A23,23,0,0,1,108.11,97a15.75,15.75,0,0,1-5.49,6.61A14.48,14.48,0,0,1,94.37,106Z"/><path class="cls-6" d="M109.05,55.7V87.25a21.88,21.88,0,0,1-1.85,9.29,14.61,14.61,0,0,1-5.14,6.2,14.46,14.46,0,0,1-15.4,0,14.54,14.54,0,0,1-5.14-6.2,22,22,0,0,1-1.83-9.29V55.7h7.48V86.37a12.9,12.9,0,0,0,.89,4.93,8,8,0,0,0,2.52,3.39,6.41,6.41,0,0,0,7.58,0,7.91,7.91,0,0,0,2.51-3.39,12.9,12.9,0,0,0,.89-4.93V55.7h7.49m2-2H99.56V86.37a10.93,10.93,0,0,1-.74,4.17A6,6,0,0,1,97,93.1a4.07,4.07,0,0,1-2.58.83,4.15,4.15,0,0,1-2.58-.83,6,6,0,0,1-1.88-2.56,10.93,10.93,0,0,1-.74-4.17V53.7H77.69V87.25a24.26,24.26,0,0,0,2,10.13,16.73,16.73,0,0,0,5.84,7,16.47,16.47,0,0,0,17.64,0,16.73,16.73,0,0,0,5.84-7,24.1,24.1,0,0,0,2-10.13V53.7Z"/><path class="cls-5" d="M134.17,105.27l-6.7-17.22h-3.78v17.22H114.2V54.7h15a12.79,12.79,0,0,1,7.42,2.14,13.28,13.28,0,0,1,4.7,6,22.74,22.74,0,0,1,1.57,8.77,21.6,21.6,0,0,1-1.61,8.71,12.73,12.73,0,0,1-4.41,5.52l7.76,19.47Zm-6.4-27.47a6.18,6.18,0,0,0,3.07-.67,4,4,0,0,0,1.69-1.95,9.18,9.18,0,0,0,.62-3.61,9.64,9.64,0,0,0-.62-3.69,4.21,4.21,0,0,0-1.73-2.06,5.86,5.86,0,0,0-3.07-.72h-4V77.8Z"/><path class="cls-6" d="M129.17,55.7a11.81,11.81,0,0,1,6.85,2,12.16,12.16,0,0,1,4.34,5.53,21.51,21.51,0,0,1,1.5,8.38,20.69,20.69,0,0,1-1.52,8.31,11.78,11.78,0,0,1-4.4,5.33c-.11.06-.23.11-.34.18l7.52,18.88h-8.26l-6.71-17.21h-5.46v17.21H115.2V55.7h14m-6.48,23.1h5.08a7.18,7.18,0,0,0,3.56-.8,5,5,0,0,0,2.12-2.42,10,10,0,0,0,.7-4,10.47,10.47,0,0,0-.7-4.08A5.28,5.28,0,0,0,131.32,65a6.86,6.86,0,0,0-3.59-.86h-5V78.8m6.48-25.1h-16v52.57h11.49V89.06h2.09L133,105l.5,1.27h12.58L145,103.53l-6.92-17.38a14,14,0,0,0,4.11-5.47,22.68,22.68,0,0,0,1.69-9.11,23.81,23.81,0,0,0-1.65-9.16,14.28,14.28,0,0,0-5.05-6.4,13.84,13.84,0,0,0-8-2.31Zm-4.48,12.4h3a4.92,4.92,0,0,1,2.55.57,3.32,3.32,0,0,1,1.33,1.6,8.58,8.58,0,0,1,.54,3.3,8.1,8.1,0,0,1-.54,3.21,3,3,0,0,1-1.27,1.48,5.22,5.22,0,0,1-2.57.54h-3.08V66.1Z"/><path class="cls-5" d="M160.27,106a15.92,15.92,0,0,1-8-1.93A13.38,13.38,0,0,1,147,98.26,21.45,21.45,0,0,1,145,89l0-1h9.22l0,1a8.31,8.31,0,0,0,.91,3.63,5,5,0,0,0,2,2.05,6.24,6.24,0,0,0,3,.7,5.83,5.83,0,0,0,2.83-.64,4.41,4.41,0,0,0,1.8-1.73,5.11,5.11,0,0,0,.64-2.6,4.19,4.19,0,0,0-.54-2.23,5,5,0,0,0-1.7-1.56,17.18,17.18,0,0,0-3.09-1.34l-3.86-1.33a16,16,0,0,1-7.52-5c-1.88-2.3-2.82-5.39-2.81-9.2a17.21,17.21,0,0,1,1.84-8.17A13.77,13.77,0,0,1,160.36,54a13.71,13.71,0,0,1,7.42,2,13.54,13.54,0,0,1,4.95,5.55,18.33,18.33,0,0,1,1.8,8.07l0,1h-9.12l-.07-.93a5.88,5.88,0,0,0-1.49-3.82,4.75,4.75,0,0,0-3.56-1.29,5.34,5.34,0,0,0-2.61.57,3.76,3.76,0,0,0-1.53,1.53,4.74,4.74,0,0,0-.55,2.32,4.21,4.21,0,0,0,.32,1.87,4,4,0,0,0,1,1.34,7.27,7.27,0,0,0,1.58,1.06,13.93,13.93,0,0,0,2,.8l3.2,1a19.65,19.65,0,0,1,4.47,2,14.22,14.22,0,0,1,3.6,3.13,13.8,13.8,0,0,1,2.38,4.4,18.09,18.09,0,0,1,.86,5.69,18.33,18.33,0,0,1-1.76,8.18,12.86,12.86,0,0,1-5.09,5.46A15.47,15.47,0,0,1,160.27,106Z"/><path class="cls-6" d="M160.36,55a12.72,12.72,0,0,1,6.89,1.85A12.49,12.49,0,0,1,171.84,62a17.21,17.21,0,0,1,1.69,7.63h-7.17a6.81,6.81,0,0,0-1.78-4.46,5.73,5.73,0,0,0-4.27-1.59,6.4,6.4,0,0,0-3.1.7,4.78,4.78,0,0,0-1.92,1.94,5.71,5.71,0,0,0-.67,2.8,5.09,5.09,0,0,0,.41,2.27A5,5,0,0,0,156.24,73a8,8,0,0,0,1.8,1.21,14.57,14.57,0,0,0,2.18.87l3.18,1a18.71,18.71,0,0,1,4.26,1.9A13,13,0,0,1,171,80.94a12.49,12.49,0,0,1,2.2,4.08A17,17,0,0,1,174,90.4a17.19,17.19,0,0,1-1.65,7.72,11.86,11.86,0,0,1-4.71,5,14.42,14.42,0,0,1-7.39,1.79,14.9,14.9,0,0,1-7.46-1.8,12.29,12.29,0,0,1-4.94-5.35A20.35,20.35,0,0,1,146,89h7.24a9.41,9.41,0,0,0,1,4.07,6,6,0,0,0,2.44,2.44,7.2,7.2,0,0,0,3.47.82,6.85,6.85,0,0,0,3.31-.76,5.43,5.43,0,0,0,2.19-2.11,6.17,6.17,0,0,0,.77-3.1,5.07,5.07,0,0,0-.7-2.76,5.67,5.67,0,0,0-2-1.89,17.45,17.45,0,0,0-3.27-1.43L156.59,83a15,15,0,0,1-7.07-4.68c-1.73-2.11-2.59-5-2.58-8.56a16.11,16.11,0,0,1,1.72-7.7,12.8,12.8,0,0,1,11.7-7m0-2a14.84,14.84,0,0,0-13.47,8.06,18.33,18.33,0,0,0-1.95,8.65,15.08,15.08,0,0,0,3,9.82,16.93,16.93,0,0,0,8,5.3l3.83,1.33a15.59,15.59,0,0,1,2.93,1.25,4,4,0,0,1,1.35,1.24,3.16,3.16,0,0,1,.39,1.69,4.07,4.07,0,0,1-.51,2.11,3.48,3.48,0,0,1-1.4,1.34,4.9,4.9,0,0,1-2.36.52,5.28,5.28,0,0,1-2.53-.58A4,4,0,0,1,156,92.12a7.41,7.41,0,0,1-.78-3.2l-.09-1.9H144l0,2a22.32,22.32,0,0,0,2.07,9.64,14.3,14.3,0,0,0,5.75,6.2,16.86,16.86,0,0,0,8.44,2.06,16.42,16.42,0,0,0,8.4-2.06A14,14,0,0,0,174.16,99a20.66,20.66,0,0,0,1-14.63,14.83,14.83,0,0,0-2.55-4.71,15.55,15.55,0,0,0-3.86-3.36,20.71,20.71,0,0,0-4.71-2.1l-3.15-1a13.2,13.2,0,0,1-1.9-.76,5.84,5.84,0,0,1-1.36-.9,3.19,3.19,0,0,1-.73-1,3.09,3.09,0,0,1-.23-1.4v0a3.75,3.75,0,0,1,.43-1.85,2.76,2.76,0,0,1,1.13-1.14,4.52,4.52,0,0,1,2.13-.45,3.82,3.82,0,0,1,2.85,1,4.83,4.83,0,0,1,1.2,3.2l.14,1.85h11.06l0-2a19.27,19.27,0,0,0-1.9-8.51A14.29,14.29,0,0,0,160.36,53Z"/></svg>